<svg xmlns="http://www.w3.org/2000/svg" width="375" height="38.002" viewBox="0 0 375 38.002"><defs><style>.a{fill:#343434;}</style></defs><g transform="translate(0 4)"><path class="a" d="M375,38H335.01a39.853,39.853,0,0,0,27.631-11.067,39.855,39.855,0,0,0,8.66-12.071A39.534,39.534,0,0,0,374.951,0H375V38h0ZM0,38V0H.049A39.525,39.525,0,0,0,3.7,14.863a39.855,39.855,0,0,0,8.66,12.071A39.877,39.877,0,0,0,39.6,38v0Zm123.5-9a2.5,2.5,0,0,1,0-5h129a2.5,2.5,0,0,1,0,5Z" transform="translate(0 -4)"/></g></svg>