<svg xmlns="http://www.w3.org/2000/svg" xmlns:xlink="http://www.w3.org/1999/xlink" width="24" height="24" viewBox="0 0 24 24"><defs><style>.a{clip-path:url(#a);}.b{fill:#d1d1d1;}</style><clipPath id="a"><path d="M.37,23.479a.745.745,0,0,1,0-1.054L22.577.218A.745.745,0,0,1,23.63,1.272L1.423,23.479a.744.744,0,0,1-1.053,0Zm7.1-4.338a.745.745,0,1,1,.549-1.385c5.375,2.131,11.343-.284,14.392-5.907a13.583,13.583,0,0,0-3.628-4.3.745.745,0,1,1,.909-1.181,15.164,15.164,0,0,1,4.225,5.146.744.744,0,0,1,0,.677c-2.533,4.967-7.13,7.827-11.922,7.827A12.242,12.242,0,0,1,7.472,19.14ZM4.306,17.333A15.168,15.168,0,0,1,.082,12.187a.746.746,0,0,1,0-.677C3.411,4.98,10.31,2.091,16.528,4.556a.745.745,0,0,1-.549,1.385C10.6,3.811,4.636,6.225,1.587,11.848a13.6,13.6,0,0,0,3.627,4.3.745.745,0,0,1-.908,1.181Zm5.805-.84a.745.745,0,0,1,.562-1.38,3.527,3.527,0,0,0,4.591-4.591.745.745,0,1,1,1.38-.562,5,5,0,0,1-6.533,6.533ZM7.356,13.737A5.016,5.016,0,0,1,13.889,7.2a.745.745,0,1,1-.562,1.38,3.527,3.527,0,0,0-4.591,4.591.745.745,0,1,1-1.38.562Z"/></clipPath></defs><g transform="translate(0 0)"><g transform="translate(0 0)"><path d="M.37,23.479a.745.745,0,0,1,0-1.054L22.577.218A.745.745,0,0,1,23.63,1.272L1.423,23.479a.744.744,0,0,1-1.053,0Zm7.1-4.338a.745.745,0,1,1,.549-1.385c5.375,2.131,11.343-.284,14.392-5.907a13.583,13.583,0,0,0-3.628-4.3.745.745,0,1,1,.909-1.181,15.164,15.164,0,0,1,4.225,5.146.744.744,0,0,1,0,.677c-2.533,4.967-7.13,7.827-11.922,7.827A12.242,12.242,0,0,1,7.472,19.14ZM4.306,17.333A15.168,15.168,0,0,1,.082,12.187a.746.746,0,0,1,0-.677C3.411,4.98,10.31,2.091,16.528,4.556a.745.745,0,0,1-.549,1.385C10.6,3.811,4.636,6.225,1.587,11.848a13.6,13.6,0,0,0,3.627,4.3.745.745,0,0,1-.908,1.181Zm5.805-.84a.745.745,0,0,1,.562-1.38,3.527,3.527,0,0,0,4.591-4.591.745.745,0,1,1,1.38-.562,5,5,0,0,1-6.533,6.533ZM7.356,13.737A5.016,5.016,0,0,1,13.889,7.2a.745.745,0,1,1-.562,1.38,3.527,3.527,0,0,0-4.591,4.591.745.745,0,1,1-1.38.562Z"/><g class="a"><g transform="translate(-33 -36)"><rect class="b" width="97.5" height="97.5"/></g></g></g></g></svg>