<svg xmlns="http://www.w3.org/2000/svg" width="152" height="40" viewBox="0 0 152 40"><defs><style>.a{fill:#3b5998;}.b{fill:#fff;}.c{fill:#dd4b39;}.d{fill:#55acee;}</style></defs><path class="a" d="M19.953,0A19.953,19.953,0,1,1,0,19.953,19.953,19.953,0,0,1,19.953,0Z"/><path class="b" d="M7.433,3.8H10V0H6.981V.014C3.318.143,2.568,2.2,2.5,4.365H2.494v1.9H0v3.72H2.494v9.972H6.253V9.982H9.332l.595-3.72H6.254V5.116A1.225,1.225,0,0,1,7.433,3.8Z" transform="translate(14.95 9.938)"/><g transform="translate(56)"><path class="c" d="M19.953,0A19.953,19.953,0,1,1,0,19.953,20.012,20.012,0,0,1,19.953,0Z"/><g transform="translate(7.623 12.143)"><path class="b" d="M4.49,0V2.245H6.734V4.49H4.49V6.734H2.245V4.49H0V2.245H2.245V0Z" transform="translate(17.943 4.444)"/><path class="b" d="M2.229,13.423A8.018,8.018,0,0,1,2.354,2.2,7.694,7.694,0,0,1,10.71.578l1.122.624,1.247.873-2,2-.748-.5a4.762,4.762,0,0,0-5.861.748,5.235,5.235,0,0,0,0,7.233,4.822,4.822,0,0,0,6.984,0,3.98,3.98,0,0,0,1.122-2V9.307H8.091V6.813H15.2l.125.624V9.183a6.958,6.958,0,0,1-1.871,4.365A8.264,8.264,0,0,1,2.229,13.423Z" transform="translate(0)"/></g></g><g transform="translate(112)"><g transform="translate(0 0)"><circle class="d" cx="19.858" cy="19.858" r="19.858"/><path class="b" d="M20.409,2.972A4.759,4.759,0,0,0,22.5.347,9.5,9.5,0,0,1,19.482,1.5a4.751,4.751,0,0,0-8.088,4.33A13.474,13.474,0,0,1,1.61.868,4.752,4.752,0,0,0,3.079,7.206a4.713,4.713,0,0,1-2.15-.594c0,.02,0,.04,0,.06a4.749,4.749,0,0,0,3.808,4.654,4.765,4.765,0,0,1-2.143.082,4.752,4.752,0,0,0,4.434,3.3,9.524,9.524,0,0,1-5.9,2.032A9.558,9.558,0,0,1,0,16.669,13.426,13.426,0,0,0,7.275,18.8,13.413,13.413,0,0,0,20.781,5.3c0-.206,0-.411-.014-.614a9.625,9.625,0,0,0,2.369-2.457A9.47,9.47,0,0,1,20.409,2.972Z" transform="translate(8.886 12.045)"/></g></g></svg>