<svg xmlns="http://www.w3.org/2000/svg" xmlns:xlink="http://www.w3.org/1999/xlink" width="327" height="204" viewBox="0 0 327 204"><defs><style>.a{fill:none;}.b{fill:#1573ff;}.c{clip-path:url(#a);}.d{fill:#1e1671;}.e{fill:#4eb4ff;}.f{fill:#fff;}</style><clipPath id="a"><path class="a" d="M312.78,0H14.22A14.1,14.1,0,0,0,0,13.973V190.027A14.1,14.1,0,0,0,14.22,204H312.78A14.1,14.1,0,0,0,327,190.027V13.973A14.1,14.1,0,0,0,312.78,0Z"/></clipPath></defs><path class="b" d="M312.78,0H14.22A14.1,14.1,0,0,0,0,13.973V190.027A14.1,14.1,0,0,0,14.22,204H312.78A14.1,14.1,0,0,0,327,190.027V13.973A14.1,14.1,0,0,0,312.78,0Z"/><path class="a" d="M312.78,0H14.22A14.1,14.1,0,0,0,0,13.973V190.027A14.1,14.1,0,0,0,14.22,204H312.78A14.1,14.1,0,0,0,327,190.027V13.973A14.1,14.1,0,0,0,312.78,0Z"/><g class="c"><g transform="translate(-131 -60)"><path class="d" d="M176.7,347.319c97.59,0,176.7-77.75,176.7-173.659S274.29,0,176.7,0,0,77.75,0,173.66,79.11,347.319,176.7,347.319Z" transform="translate(0.2 34.853)"/><path class="e" d="M95.46,187.633c52.72,0,95.46-42,95.46-93.816S148.18,0,95.46,0,0,42,0,93.817,42.74,187.633,95.46,187.633Z" transform="translate(354.42 0.116)"/><path class="f" d="M22.83,15.521a11.3,11.3,0,0,1-4.21-.8l.53-3.37.5.239a7.27,7.27,0,0,0,3.541.8c1.079,0,2.25-.459,2.27-1.467,0-.658-.495-1.129-1.96-1.868a8.5,8.5,0,0,1-2.2-1.5A3.508,3.508,0,0,1,20.19,4.985C20.21,2.062,22.83.02,26.56.02a9.1,9.1,0,0,1,3.39.638L29.44,3.9l-.35-.161a6.213,6.213,0,0,0-2.625-.575l-.184,0c-1.485,0-2.16.649-2.17,1.291,0,.7.8,1.167,2.119,1.853,2.18,1.069,3.191,2.367,3.181,4.086C29.37,13.51,26.787,15.521,22.83,15.521ZM42.68,15.5h-3.5l-.57-3.086H34.18L33.09,15.49H29.13l5.61-14.2A1.848,1.848,0,0,1,36.71.048h2.92L42.68,15.5ZM36.8,4.3h0c-.014.05-1.441,5.009-1.52,5.017h2.67L36.8,4.3ZM16.26,15.49H12.48L14.84,0h3.78L16.26,15.489Zm-8.88-.015H3.39L0,2.159a11.362,11.362,0,0,1,5.22,6.29l.41,2.075L9.33,0h3.99L7.38,15.474Z" transform="translate(388.72 221.87)"/><path class="f" d="M7.86,2.109A2.433,2.433,0,0,0,5.55,0H.06L0,.3A14.31,14.31,0,0,1,9.05,9.054Z" transform="translate(384.84 221.87)"/></g></g></svg>