<svg xmlns="http://www.w3.org/2000/svg" width="24" height="24.004" viewBox="0 0 24 24.004"><defs><style>.a{fill:#fff;}</style></defs><g transform="translate(1.996 -0.005)"><path class="a" d="M19.863,18.484a12.856,12.856,0,0,1-1.856-6.491V8A8,8,0,1,0,2,8v3.984a12.858,12.858,0,0,1-1.856,6.5.993.993,0,0,0-.144.5A1,1,0,0,0,1,20H19.007a1,1,0,0,0,.871-.509,1.013,1.013,0,0,0,.129-.507A1,1,0,0,0,19.863,18.484Z" transform="translate(0.001 0.006)"/><path class="a" d="M3.835,1.82A3,3,0,0,0,4.95,1.114,3,3,0,0,0,5.654,0H0A3.018,3.018,0,0,0,.6,1.005a3,3,0,0,0,.939.7,3,3,0,0,0,1.135.286A3,3,0,0,0,3.835,1.82Z" transform="translate(7.177 22.015)"/></g></svg>