<svg xmlns="http://www.w3.org/2000/svg" xmlns:xlink="http://www.w3.org/1999/xlink" width="24" height="24" viewBox="0 0 24 24"><defs><style>.a{fill:none;}.b{fill:#fff;}.c{clip-path:url(#a);}.d{fill:#f1361d;}.e{fill:#ffdc42;}</style><clipPath id="a"><rect class="a" width="24" height="17" rx="2"/></clipPath></defs><rect class="b" width="24" height="17" rx="2" transform="translate(0 4)"/><g transform="translate(0 4)"><rect class="a" width="24" height="17" rx="2"/><g class="c"><rect class="d" width="24" height="17"/><path class="e" d="M.544,9.439v0L.534,8.6l-.463-.7L.913,7.9l.7-.459.011.834.463.7-.842.01-.7.458ZM3.45,7.1h0L2.7,6.729l-.837.092.373-.748-.093-.831.754.371.838-.092-.374.748L3.45,7.1ZM2.223,4.32v0l.019-.833-.436-.713.842.019.719-.434-.02.834.438.714-.842-.02-.718.434ZM1.452,2.143h0L.83,1.581,0,1.441.567.823.708,0l.623.562L2.161.7l-.567.617-.142.821Z" transform="translate(8.634 1.195)"/><path class="e" d="M3.261,4.726,1.246,6.151,1.989,3.81,0,2.349l2.475-.022L3.261,0l.786,2.327,2.475.022L4.533,3.81l.744,2.341Z" transform="translate(2.453 2.267)"/></g></g><rect class="a" width="24" height="24"/></svg>