<svg xmlns="http://www.w3.org/2000/svg" width="22.004" height="22.004" viewBox="0 0 22.004 22.004"><defs><style>.a{fill:#898989;}</style></defs><g transform="translate(0.004 0.004)"><g transform="translate(-0.004 -0.004)"><path class="a" d="M4,16.489a8.995,8.995,0,1,1,5,1.518A9.006,9.006,0,0,1,4,16.489Z" transform="translate(0 0)"/><path class="a" d="M2,5H0A5.007,5.007,0,0,1,5,0V2A3,3,0,0,0,2,5Z" transform="translate(4.001 4.001)"/><path class="a" d="M5.672,4.258,1.415,0A10.987,10.987,0,0,1,0,1.415L4.258,5.672A1,1,0,0,0,5.672,4.258Z" transform="translate(16.043 16.043)"/></g></g></svg>