<svg xmlns="http://www.w3.org/2000/svg" width="28.011" height="28.012" viewBox="0 0 28.011 28.012"><defs><style>.a{fill:#ff4267;}</style></defs><g transform="translate(0.006 0.006)"><g transform="translate(-0.006 -0.006)"><path class="a" d="M5.836,7V8.17H8.17V7a7.01,7.01,0,0,0-7-7H0V2.334H1.167A4.673,4.673,0,0,1,5.836,7Z" transform="translate(15.173)"/><path class="a" d="M2.334,1.167V0H0V1.167a7.01,7.01,0,0,0,7,7H8.17V5.836H7A4.673,4.673,0,0,1,2.334,1.167Z" transform="translate(4.669 19.842)"/><path class="a" d="M2.334,17.508A2.334,2.334,0,0,1,0,15.172V2.334A2.334,2.334,0,0,1,2.334,0H10.5a2.334,2.334,0,0,1,2.334,2.334V15.172A2.334,2.334,0,0,1,10.5,17.508Z"/><path class="a" d="M2.334,17.508A2.334,2.334,0,0,1,0,15.172V2.334A2.334,2.334,0,0,1,2.334,0H10.5a2.334,2.334,0,0,1,2.334,2.334V15.172A2.334,2.334,0,0,1,10.5,17.508Z" transform="translate(15.173 10.504)"/></g></g></svg>