<svg xmlns="http://www.w3.org/2000/svg" width="28.012" height="28.012" viewBox="0 0 28.012 28.012"><defs><style>.a{fill:#5655b9;}</style></defs><g transform="translate(0.006 0.006)"><g transform="translate(-0.006 -0.006)"><path class="a" d="M17.508,22.192V19.858H12.838v2.334H10.5V19.818a8.716,8.716,0,0,1-7.159-4.628H0V7.019H3.352A8.746,8.746,0,0,1,5.54,4.337L4.34.217,5.67.027A4.542,4.542,0,0,1,10.057,2.35h9.2a8.749,8.749,0,0,1,.584,17.478v2.364Z" transform="translate(0 5.82)"/><path class="a" d="M2.918,5.836A2.918,2.918,0,1,0,0,2.918,2.917,2.917,0,0,0,2.918,5.836Z" transform="translate(12.839)"/></g></g></svg>