<svg xmlns="http://www.w3.org/2000/svg" width="22" height="22" viewBox="0 0 22 22"><defs><style>.a{fill:none;stroke:#898989;stroke-miterlimit:10;stroke-width:1.5px;}</style></defs><g transform="translate(0.917 0.917)"><path class="a" d="M20.167,11.458V8.708L17.189,8.3a7.259,7.259,0,0,0-.825-1.985l1.819-2.393L16.242,1.981,13.849,3.8a7.259,7.259,0,0,0-1.985-.825L11.458,0H8.708L8.3,2.977A7.259,7.259,0,0,0,6.318,3.8L3.925,1.981,1.981,3.925,3.8,6.318A7.259,7.259,0,0,0,2.975,8.3L0,8.708v2.75l2.977.406A7.259,7.259,0,0,0,3.8,13.849L1.984,16.242l1.944,1.944L6.32,16.367a7.259,7.259,0,0,0,1.985.825l.4,2.975h2.75l.406-2.977a7.259,7.259,0,0,0,1.985-.825l2.393,1.819,1.944-1.944-1.819-2.393a7.259,7.259,0,0,0,.825-1.985Z"/><path class="a" d="M2.75,5.5A2.75,2.75,0,1,0,0,2.75,2.75,2.75,0,0,0,2.75,5.5Z" transform="translate(7.333 7.333)"/></g></svg>