<svg xmlns="http://www.w3.org/2000/svg" xmlns:xlink="http://www.w3.org/1999/xlink" width="24" height="24" viewBox="0 0 24 24"><defs><style>.a{fill:none;}.b{fill:#fff;}.c{clip-path:url(#a);}.d{fill:#d02f44;}.e{fill:#46467f;}.f{fill:url(#b);}</style><clipPath id="a"><rect class="a" width="24" height="17.143" rx="2"/></clipPath><linearGradient id="b" x2="0" y2="1" gradientUnits="objectBoundingBox"><stop offset="0" stop-color="#fff"/><stop offset="1" stop-color="#f0f0f0"/></linearGradient></defs><rect class="a" width="24" height="24"/><g transform="translate(0 3)"><rect class="b" width="24" height="17.143" rx="2"/><rect class="a" width="24" height="17.143" rx="2"/><g class="c"><path class="d" d="M24,17.143H0V16H24v1.142Zm0-2.286H0V13.714H24v1.142Zm0-2.286H0V11.428H24V12.57Zm0-2.285H0V9.143H24v1.142ZM24,8H0V6.857H24V8Zm0-2.286H0V4.571H24V5.713Zm0-2.285H0V2.286H24V3.428Zm0-2.286H0V0H24V1.142Z"/><rect class="e" width="10.286" height="8"/><path class="f" d="M7.429,5.714A.572.572,0,1,1,8,5.143.572.572,0,0,1,7.429,5.714Zm-2.286,0a.572.572,0,1,1,.571-.572A.572.572,0,0,1,5.143,5.714Zm-2.285,0a.572.572,0,1,1,.572-.572A.572.572,0,0,1,2.858,5.714Zm-2.286,0a.572.572,0,1,1,.572-.572A.572.572,0,0,1,.572,5.714ZM6.286,4.571A.571.571,0,1,1,6.857,4,.572.572,0,0,1,6.286,4.571ZM4,4.571A.571.571,0,1,1,4.571,4,.572.572,0,0,1,4,4.571Zm-2.285,0A.571.571,0,1,1,2.286,4,.572.572,0,0,1,1.715,4.571ZM7.429,3.429A.571.571,0,1,1,8,2.858.572.572,0,0,1,7.429,3.429Zm-2.286,0a.571.571,0,1,1,.571-.572A.572.572,0,0,1,5.143,3.429Zm-2.285,0a.571.571,0,1,1,.572-.572A.572.572,0,0,1,2.858,3.429Zm-2.286,0a.571.571,0,1,1,.572-.572A.572.572,0,0,1,.572,3.429ZM6.286,2.286a.572.572,0,1,1,.571-.572A.572.572,0,0,1,6.286,2.286ZM4,2.286a.572.572,0,1,1,.572-.572A.572.572,0,0,1,4,2.286Zm-2.285,0a.572.572,0,1,1,.571-.572A.572.572,0,0,1,1.715,2.286ZM7.429,1.143A.571.571,0,1,1,8,.572.572.572,0,0,1,7.429,1.143Zm-2.286,0A.571.571,0,1,1,5.714.572.572.572,0,0,1,5.143,1.143Zm-2.285,0A.571.571,0,1,1,3.429.572.572.572,0,0,1,2.858,1.143Zm-2.286,0A.571.571,0,1,1,1.143.572.572.572,0,0,1,.572,1.143Z" transform="translate(1.143 1.143)"/></g></g></svg>