<svg xmlns="http://www.w3.org/2000/svg" width="28" height="28.012" viewBox="0 0 28 28.012"><defs><style>.a{fill:#ffaf2a;}</style></defs><g transform="translate(0 0.006)"><g transform="translate(3.496 -0.006)"><path class="a" d="M3.5,28.012A3.5,3.5,0,0,1,0,24.51V3.5A3.5,3.5,0,0,1,3.5,0H17.508a3.5,3.5,0,0,1,3.5,3.5V24.51a3.5,3.5,0,0,1-3.5,3.5Z" transform="translate(0 0)"/><path class="a" d="M4.176,17.162V15A10.592,10.592,0,0,1,0,14.22V12.053a10.406,10.406,0,0,0,2.062.723,9.334,9.334,0,0,0,2.114.3V9.243l-.862-.319A6.058,6.058,0,0,1,.862,7.381,3.286,3.286,0,0,1,.088,5.164a2.907,2.907,0,0,1,.277-1.3,2.871,2.871,0,0,1,.825-1.038A5.474,5.474,0,0,1,4.182,1.722V0H5.543V1.7a11.284,11.284,0,0,1,3.949.835L8.744,4.413a10.994,10.994,0,0,0-3.2-.759V7.389l.779.3a7.16,7.16,0,0,1,2.7,1.579,2.916,2.916,0,0,1,.752,2.029,3.13,3.13,0,0,1-1.093,2.451,5.536,5.536,0,0,1-3.14,1.191v2.226Z" transform="translate(5.622 5.419)"/></g></g></svg>