<svg xmlns="http://www.w3.org/2000/svg" xmlns:xlink="http://www.w3.org/1999/xlink" width="24.5" height="24" viewBox="0 0 24.5 24"><defs><style>.a{fill:none;}.b{fill:#fff;stroke:#f5f5f5;stroke-miterlimit:10;stroke-width:0.5px;}.c{clip-path:url(#a);}.d{fill:#e01b41;}.e{clip-path:url(#b);}.f{fill:#0e4b9c;}.g{fill:#262626;opacity:0.75;}</style><clipPath id="a"><rect class="a" width="23.571" height="16.575" rx="1.75" transform="translate(0.214 0.213)"/></clipPath><clipPath id="b"><path class="a" d="M4,7.934A3.967,3.967,0,1,0,0,3.967,3.984,3.984,0,0,0,4,7.934Z" transform="translate(0.285 0.283)"/></clipPath></defs><g transform="translate(0.25)"><g transform="translate(0 4)"><rect class="b" width="24" height="17" rx="1.75"/><rect class="a" width="23.571" height="16.575" rx="1.75" transform="translate(0.214 0.213)"/><g class="c"><g transform="translate(3.429 2.55)"><path class="d" d="M4,7.934A3.967,3.967,0,1,0,0,3.967,3.984,3.984,0,0,0,4,7.934Z" transform="translate(4.571 1.983)"/><g transform="translate(4.286 1.7)"><path class="a" d="M4,7.934A3.967,3.967,0,1,0,0,3.967,3.984,3.984,0,0,0,4,7.934Z" transform="translate(0.285 0.283)"/><g class="e"><path class="f" d="M.508,1.275c1.143,1.063,2.858,1.7,4,0s3.429-1.7,4,0a5.942,5.942,0,0,1,0,3.4h-8S-.635.213.508,1.275Z" transform="translate(-0.222 3.542)"/></g></g><path class="g" d="M14.638,11.237a.289.289,0,0,1-.143-.038L14,10.915a.282.282,0,0,1-.134-.173.277.277,0,0,1,.029-.213l1.428-2.454a.288.288,0,0,1,.391-.1l.5.283a.283.283,0,0,1,.1.388L14.885,11.1A.287.287,0,0,1,14.638,11.237Zm-12.923,0a.287.287,0,0,1-.247-.142L.038,8.642a.284.284,0,0,1,.105-.388l.5-.283a.287.287,0,0,1,.39.1l1.429,2.454a.277.277,0,0,1,.029.212.283.283,0,0,1-.133.174l-.5.283A.286.286,0,0,1,1.714,11.237Zm11.439-.851a.286.286,0,0,1-.143-.038l-.5-.283a.283.283,0,0,1-.1-.387l1.429-2.453a.286.286,0,0,1,.39-.1l.5.283a.285.285,0,0,1,.1.388L13.4,10.245A.285.285,0,0,1,13.153,10.386Zm-9.954,0a.285.285,0,0,1-.247-.142L1.523,7.792a.283.283,0,0,1,.1-.388l.5-.283a.284.284,0,0,1,.142-.038.288.288,0,0,1,.248.142L3.942,9.679a.279.279,0,0,1,.028.214.282.282,0,0,1-.133.173l-.495.283A.286.286,0,0,1,3.2,10.386ZM14.086,4.154a.285.285,0,0,1-.247-.142L12.41,1.558a.283.283,0,0,1,.1-.387l.5-.283a.286.286,0,0,1,.39.1l1.429,2.453a.283.283,0,0,1-.1.387l-.5.283A.286.286,0,0,1,14.086,4.154Zm-11.821,0a.286.286,0,0,1-.142-.038l-.5-.283a.283.283,0,0,1-.133-.173.279.279,0,0,1,.029-.214L2.952.992a.286.286,0,0,1,.39-.1l.495.283a.282.282,0,0,1,.133.173.279.279,0,0,1-.028.214L2.513,4.012A.287.287,0,0,1,2.266,4.154ZM15.571,3.3a.287.287,0,0,1-.247-.142L13.9.708A.281.281,0,0,1,14,.321l.495-.283a.287.287,0,0,1,.391.1l1.428,2.452a.283.283,0,0,1-.1.388l-.5.283A.289.289,0,0,1,15.571,3.3ZM.781,3.3a.288.288,0,0,1-.143-.038l-.5-.283a.284.284,0,0,1-.105-.388L1.467.142a.286.286,0,0,1,.39-.1l.5.283a.283.283,0,0,1,.133.173.279.279,0,0,1-.029.214L1.028,3.162A.285.285,0,0,1,.781,3.3Z" transform="translate(0.395 0.332)"/></g></g></g><rect class="a" width="24" height="24"/></g></svg>