<svg xmlns="http://www.w3.org/2000/svg" xmlns:xlink="http://www.w3.org/1999/xlink" width="24" height="24" viewBox="0 0 24 24"><defs><style>.a,.e{fill:none;}.b{fill:#fff;}.c{clip-path:url(#a);}.d{fill:#0a17a7;}.e{stroke:#db1f35;stroke-linecap:round;stroke-miterlimit:10;stroke-width:0.667px;}.f{fill:#e6273e;}</style><clipPath id="a"><rect class="a" width="24" height="17" rx="2"/></clipPath></defs><g transform="translate(0 4)"><rect class="b" width="24" height="17" rx="2"/><rect class="a" width="24" height="17" rx="2"/><g class="c"><g transform="translate(-3.429 -1.7)"><rect class="d" width="24" height="17" transform="translate(3.429 1.7)"/><path class="b" d="M1.279,0,11.521,6.85V.5h5.714V6.85L27.477,0l1.279,1.878L20.657,7.3h5.721v5.666H20.657l8.1,5.417-1.279,1.878-10.242-6.85v6.355H11.521V13.407L1.279,20.257,0,18.379l8.1-5.417H2.378V7.3H8.1L0,1.878Z" transform="translate(1.051 0.071)"/><path class="e" d="M0,7.082,10.856,0" transform="translate(19.43)"/><path class="e" d="M0,0,9.732,6.5" transform="translate(20.583 13.343)"/><path class="e" d="M10.151,6.784,0,0" transform="translate(0.14 0.28)"/><path class="e" d="M11.252,0,0,7.4" transform="translate(0.14 13.264)"/><path class="f" d="M0,10.2H10.286V17h3.429V10.2H24V6.8H13.714V0H10.286V6.8H0Z" transform="translate(3.429 1.7)"/></g></g></g></svg>