<svg xmlns="http://www.w3.org/2000/svg" xmlns:xlink="http://www.w3.org/1999/xlink" width="24" height="24" viewBox="0 0 24 24"><defs><style>.a,.h{fill:none;}.b{fill:#fff;}.c{clip-path:url(#a);}.d{fill:#05ab41;}.e{fill:#fdd216;}.f{fill:#053087;}.g{clip-path:url(#b);}.h{stroke:#fff;stroke-linecap:square;stroke-miterlimit:10;stroke-width:1.333px;}</style><clipPath id="a"><rect class="a" width="24" height="17" rx="2"/></clipPath><clipPath id="b"><path class="a" d="M4,7.933A3.967,3.967,0,1,0,0,3.967,3.984,3.984,0,0,0,4,7.933Z" transform="translate(0.285 0.283)"/></clipPath></defs><g transform="translate(0 4)"><rect class="b" width="24" height="17" rx="2"/><rect class="a" width="24" height="17" rx="2"/><g class="c"><rect class="d" width="24" height="17"/><path class="e" d="M.261,6.6a.564.564,0,0,1,0-.951L8.923.091a.575.575,0,0,1,.621,0l8.662,5.558a.564.564,0,0,1,0,.951L9.544,12.159a.575.575,0,0,1-.621,0Z" transform="translate(2.766 2.375)"/><path class="f" d="M4,7.933A3.967,3.967,0,1,0,0,3.967,3.984,3.984,0,0,0,4,7.933Z" transform="translate(8 4.533)"/><g transform="translate(7.714 4.25)"><path class="a" d="M4,7.933A3.967,3.967,0,1,0,0,3.967,3.984,3.984,0,0,0,4,7.933Z" transform="translate(0.285 0.283)"/><g class="g"><path class="h" d="M0,.215C.628-.29,2.655.188,4.546.688A10.774,10.774,0,0,1,8.913,2.853" transform="translate(-0.189 2.999)"/></g></g></g></g></svg>