<svg width="252" height="253" viewBox="0 0 252 253" fill="none" xmlns="http://www.w3.org/2000/svg">
<path opacity="0.1" fill-rule="evenodd" clip-rule="evenodd" d="M144.6 42.156C129.881 41.7104 115.862 37.5804 102.475 33.0597C89.0883 28.5401 75.8297 23.5318 61.4633 21.1369C52.2222 19.5966 41.6532 19.3792 34.2097 23.6857C27.0437 27.8383 24.7284 34.9864 23.4844 41.6253C22.5474 46.6207 21.997 51.8776 24.5624 56.5522C26.3454 59.7985 29.5067 62.5271 31.6946 65.6378C39.3064 76.4573 33.9262 89.7998 25.6791 100.364C21.8128 105.321 17.3211 110.053 14.3349 115.325C11.3487 120.595 9.96829 126.645 12.5814 132.026C15.1695 137.365 21.3397 141.367 28.0238 144.185C41.5992 149.909 57.5898 151.546 73.1941 152.473C107.724 154.528 142.437 153.637 177.058 152.748C189.872 152.418 202.739 152.084 215.344 150.361C222.344 149.404 229.57 147.888 234.653 144.223C241.103 139.569 242.701 131.693 238.378 125.858C231.127 116.071 211.086 113.642 206.013 103.14C203.224 97.359 206.087 90.9214 210.143 85.559C218.84 74.0592 233.416 63.9683 234.182 50.8239C234.71 41.7954 227.702 32.754 216.868 28.4809C205.512 24.0043 189.762 24.5662 181.389 31.979C172.758 39.6104 157.597 42.5467 144.6 42.156Z" fill="#FA7268"/>
<path fill-rule="evenodd" clip-rule="evenodd" d="M169.534 232.538C174.48 232.538 178.49 231.847 178.49 230.995C178.49 230.144 174.48 229.453 169.534 229.453C164.587 229.453 160.577 230.144 160.577 230.995C160.577 231.847 164.587 232.538 169.534 232.538Z" fill="#417505"/>
<path fill-rule="evenodd" clip-rule="evenodd" d="M173.836 228.591C174.244 228.25 174.542 227.793 174.69 227.278C174.8 226.758 174.582 226.143 174.093 225.941C173.545 225.729 172.959 226.117 172.516 226.507C172.072 226.897 171.563 227.344 170.981 227.259C171.28 226.984 171.504 226.634 171.631 226.244C171.758 225.854 171.784 225.437 171.705 225.035C171.679 224.868 171.609 224.711 171.502 224.581C171.2 224.25 170.646 224.39 170.284 224.654C169.125 225.482 168.803 227.084 168.796 228.525C168.677 228.005 168.778 227.463 168.774 226.937C168.769 226.412 168.629 225.804 168.186 225.524C167.912 225.375 167.605 225.301 167.294 225.311C166.773 225.291 166.194 225.345 165.838 225.733C165.392 226.214 165.512 227.021 165.895 227.547C166.278 228.074 166.864 228.411 167.404 228.777C167.835 229.038 168.203 229.396 168.479 229.823C168.513 229.881 168.54 229.945 168.56 230.01H171.813C172.548 229.632 173.228 229.154 173.836 228.591Z" fill="#417505"/>
<path fill-rule="evenodd" clip-rule="evenodd" d="M223.758 201.989C230.077 201.989 235.2 201.106 235.2 200.018C235.2 198.93 230.077 198.048 223.758 198.048C217.439 198.048 212.316 198.93 212.316 200.018C212.316 201.106 217.439 201.989 223.758 201.989Z" fill="#417505"/>
<path fill-rule="evenodd" clip-rule="evenodd" d="M228.869 197.339C229.39 196.905 229.771 196.32 229.959 195.662C230.101 194.998 229.822 194.213 229.196 193.955C228.496 193.683 227.748 194.178 227.182 194.676C226.616 195.174 225.964 195.746 225.221 195.638C225.603 195.287 225.889 194.839 226.051 194.342C226.214 193.843 226.245 193.31 226.146 192.796C226.112 192.583 226.023 192.382 225.886 192.216C225.499 191.794 224.794 191.973 224.33 192.309C222.851 193.367 222.438 195.415 222.43 197.255C222.278 196.592 222.407 195.899 222.401 195.227C222.395 194.554 222.216 193.778 221.65 193.422C221.3 193.231 220.907 193.137 220.511 193.149C219.846 193.124 219.105 193.193 218.65 193.688C218.081 194.303 218.235 195.334 218.724 196.006C219.214 196.679 219.962 197.11 220.651 197.576C221.202 197.911 221.672 198.367 222.025 198.913C222.068 198.989 222.102 199.07 222.127 199.153H226.285C227.222 198.669 228.092 198.06 228.869 197.339Z" fill="#417505"/>
<path fill-rule="evenodd" clip-rule="evenodd" d="M117.357 164.702C118.654 164.871 120.001 164.978 121.243 164.568C121.439 164.506 121.654 164.369 121.635 164.169C121.621 164.097 121.591 164.029 121.547 163.97C121.078 163.254 120.685 162.491 120.373 161.692C120.36 161.651 120.335 161.614 120.3 161.589C120.259 161.574 120.215 161.574 120.175 161.589C119.602 161.742 119.106 162.119 118.537 162.281C118.246 162.362 117.943 162.384 117.644 162.348C117.386 162.318 117.034 162.101 116.799 162.129C116.932 163 117.256 163.812 117.357 164.702Z" fill="#6C63FF"/>
<path fill-rule="evenodd" clip-rule="evenodd" d="M142.103 162.045C142.958 161.447 143.845 160.82 144.35 159.897C144.386 159.842 144.407 159.777 144.411 159.711C144.402 159.646 144.377 159.585 144.338 159.532C143.857 158.754 143.238 158.073 142.513 157.525C142.134 157.798 141.791 158.12 141.495 158.481C141.279 158.713 140.684 159.08 140.678 159.433C140.678 159.631 140.906 159.863 141.011 160.03C141.154 160.245 141.289 160.465 141.418 160.688C141.493 160.797 142.171 162.001 142.103 162.045Z" fill="#6C63FF"/>
<path fill-rule="evenodd" clip-rule="evenodd" d="M122.1 166.961C122.116 167.165 122.06 167.37 121.944 167.538C121.852 167.632 121.739 167.7 121.614 167.738C119.8 168.399 117.7 167.575 115.89 168.226C115.518 168.36 115.166 168.552 114.792 168.68C114.346 168.817 113.886 168.9 113.422 168.927C112.782 168.989 112.138 169.029 111.496 169.047C111.009 169.082 110.518 169.038 110.044 168.917C109.807 168.855 109.585 168.744 109.393 168.589C109.201 168.434 109.044 168.239 108.93 168.018C108.832 167.821 108.812 167.592 108.876 167.379C108.904 167.306 108.944 167.238 108.995 167.18C109.117 167.04 109.262 166.92 109.422 166.827L110.089 166.388C110.402 166.163 110.742 165.98 111.1 165.842C111.365 165.755 111.645 165.717 111.913 165.644C112.851 165.364 113.567 164.607 114.233 163.88L115.14 162.893C115.226 162.785 115.333 162.697 115.455 162.636C115.582 162.593 115.715 162.58 115.846 162.598C116.729 162.662 117.581 162.953 118.323 163.443C118.512 163.588 118.717 163.711 118.933 163.81C119.466 164.021 120.149 163.862 120.64 163.594C120.873 163.468 120.822 163.396 120.92 163.169C121.017 162.941 121.256 162.796 121.464 163.003C121.527 163.075 121.57 163.161 121.593 163.254C121.788 163.911 121.715 164.62 121.715 165.308C121.709 165.417 121.722 165.524 121.754 165.628C121.803 165.731 121.863 165.83 121.932 165.922C121.946 165.947 121.958 165.972 121.968 165.998C122.089 166.303 122.134 166.633 122.1 166.961Z" fill="#514E7F"/>
<path fill-rule="evenodd" clip-rule="evenodd" d="M122.1 167.611C122.116 167.816 122.06 168.02 121.944 168.189C121.852 168.283 121.739 168.351 121.614 168.388C119.8 169.05 117.7 168.225 115.89 168.877C115.518 169.01 115.166 169.203 114.792 169.33C114.346 169.467 113.886 169.55 113.422 169.578C112.782 169.639 112.138 169.68 111.496 169.697C111.009 169.733 110.518 169.689 110.044 169.567C109.807 169.506 109.585 169.394 109.393 169.239C109.201 169.084 109.044 168.89 108.93 168.669C108.832 168.471 108.812 168.242 108.876 168.03C108.904 167.957 108.944 167.889 108.995 167.83C109.101 168.055 109.177 168.354 109.244 168.462C109.333 168.621 109.456 168.759 109.602 168.867C109.748 168.975 109.915 169.049 110.093 169.085C110.358 169.102 110.624 169.068 110.876 168.984C112.519 168.57 114.267 168.563 115.846 167.935C116.389 167.719 116.906 167.43 117.475 167.298C118.044 167.166 118.649 167.202 119.236 167.152C120.165 167.077 121.063 166.792 121.976 166.643C122.095 166.951 122.137 167.283 122.1 167.611Z" fill="#464353"/>
<path fill-rule="evenodd" clip-rule="evenodd" d="M145.979 162.742C145.894 163.444 145.457 164.048 144.977 164.559C144.498 165.072 143.956 165.532 143.575 166.121C143.105 166.853 142.893 167.76 142.283 168.377C142.048 168.602 141.785 168.793 141.5 168.946C141.181 169.137 140.842 169.295 140.492 169.418C139.58 169.715 138.598 169.647 137.645 169.575C137.335 169.572 137.029 169.512 136.74 169.398C136.609 169.33 136.483 169.252 136.364 169.163C136.125 169.013 135.924 168.808 135.777 168.565C135.705 168.432 135.684 168.277 135.72 168.13C135.775 167.968 135.869 167.823 135.993 167.708C136.207 167.481 136.437 167.27 136.681 167.077C137.017 166.856 137.318 166.587 137.578 166.279C137.737 166.035 137.855 165.766 137.924 165.482C138.062 164.985 138.147 164.474 138.177 163.957C138.176 163.615 138.211 163.273 138.28 162.937C138.426 162.412 138.809 161.941 138.766 161.397C138.748 161.319 138.755 161.237 138.786 161.163C138.831 161.107 138.894 161.066 138.965 161.05C139.264 160.928 139.58 160.854 139.901 160.829C140.062 160.818 140.224 160.843 140.374 160.903C140.524 160.963 140.659 161.056 140.77 161.176C140.903 161.339 140.991 161.575 141.187 161.639C141.284 161.665 141.386 161.669 141.484 161.65C141.966 161.6 142.474 161.538 142.854 161.221C143.029 161.061 143.171 160.866 143.268 160.648C143.366 160.429 143.418 160.192 143.421 159.952C143.421 159.77 143.342 159.582 143.617 159.554C143.825 159.525 143.989 159.753 144.095 159.892C144.477 160.413 144.868 160.957 145.011 161.59C145.067 161.569 145.126 161.557 145.185 161.557C145.307 161.555 145.428 161.584 145.537 161.641C145.645 161.697 145.739 161.779 145.809 161.882C145.965 162.138 146.026 162.444 145.979 162.742Z" fill="#514E7F"/>
<path fill-rule="evenodd" clip-rule="evenodd" d="M145.906 162.793C145.82 163.494 145.383 164.098 144.904 164.611C144.424 165.122 143.882 165.583 143.501 166.173C143.031 166.904 142.819 167.811 142.208 168.429C141.974 168.653 141.711 168.844 141.426 168.996C141.107 169.189 140.769 169.347 140.418 169.468C139.506 169.766 138.524 169.698 137.571 169.626C137.261 169.623 136.955 169.563 136.666 169.449C136.535 169.381 136.41 169.302 136.29 169.214C136.051 169.064 135.85 168.859 135.703 168.616C135.886 168.526 136.087 168.477 136.29 168.472C136.713 168.497 137.022 168.903 137.427 169.028C138.005 169.206 138.581 168.791 139.166 168.65C139.547 168.557 139.949 168.582 140.326 168.45C140.641 168.326 140.932 168.147 141.185 167.92C141.533 167.667 141.842 167.364 142.103 167.02C142.32 166.675 142.501 166.308 142.641 165.925C142.951 165.191 143.314 164.483 143.73 163.805C143.791 163.698 143.865 163.598 143.95 163.51C144.043 163.424 144.146 163.364 144.25 163.289C144.641 162.989 144.804 162.492 144.94 162.006C144.978 161.858 145.03 161.714 145.096 161.577C145.218 161.576 145.338 161.605 145.447 161.661C145.555 161.718 145.649 161.801 145.72 161.903C145.889 162.165 145.954 162.483 145.906 162.793Z" fill="#464353"/>
<path fill-rule="evenodd" clip-rule="evenodd" d="M104.628 100.652C105.115 101.023 105.516 101.5 105.802 102.047C106.077 102.593 107.656 106.829 107.564 107.445C108.078 106.917 110.108 106.831 110.628 106.304C110.845 106.082 112.018 104.978 112.195 104.721C112.371 104.464 113.678 103.924 113.82 103.653C114.355 102.679 110.032 98.9862 110.586 98.0237C110.616 97.9792 110.631 97.9265 110.63 97.8718C110.618 97.8262 110.593 97.7857 110.558 97.7543C110.204 97.3855 109.734 97.1566 109.307 96.884C108.88 96.6105 108.469 96.2296 108.354 95.7281C107.947 95.9186 107.574 96.1759 107.249 96.489C106.456 97.1809 105.676 97.887 104.909 98.6073C104.61 98.8899 104.031 99.2668 103.892 99.671C103.727 100.106 104.342 100.415 104.628 100.652Z" fill="#FFCDD3"/>
<path fill-rule="evenodd" clip-rule="evenodd" d="M112.296 98.7673C111.633 99.2212 111.013 99.7379 110.444 100.31C109.909 100.85 109.399 101.475 109.27 102.231C109.215 102.528 109.223 102.829 109.178 103.13C108.982 104.434 107.875 105.392 107.385 106.613C107.244 106.99 107.14 107.38 107.074 107.779C106.937 108.533 106.861 109.299 106.849 110.066C106.837 110.81 107.554 111.322 107.816 112.015C108.078 112.709 108.149 113.422 108.282 114.134C108.533 115.477 108.992 116.772 109.456 118.059C110.421 120.773 113.548 128.276 114.513 130.992C117.47 130.237 125.343 128.501 127.961 126.909C128.834 126.378 121.904 120.398 122.837 119.986C122.89 119.978 122.941 119.957 122.986 119.925C123.029 119.893 123.065 119.851 123.091 119.803C123.116 119.754 123.13 119.7 123.132 119.646C123.133 119.591 123.122 119.536 123.099 119.486C122.166 115.329 119.246 111.914 117.921 107.867C117.461 106.462 116.635 105.262 116.009 103.927C115.441 102.717 115.137 101.38 114.459 100.23C114.33 99.9931 114.163 99.7804 113.963 99.6021C113.794 99.4704 113.611 99.3569 113.417 99.2658C113.03 99.0743 112.67 98.9608 112.296 98.7673Z" fill="#F7F6FF"/>
<path fill-rule="evenodd" clip-rule="evenodd" d="M105.508 100.088C108.064 100.088 110.136 97.9782 110.136 95.3756C110.136 92.772 108.064 90.6628 105.508 90.6628C102.951 90.6628 100.879 92.772 100.879 95.3756C100.879 97.9782 102.951 100.088 105.508 100.088Z" fill="#FFCDD3"/>
<path fill-rule="evenodd" clip-rule="evenodd" d="M109.834 97.1605C110.065 96.9437 110.354 96.8029 110.665 96.7573C110.975 96.7117 111.293 96.7634 111.574 96.9052C111.887 97.0704 112.161 97.4057 112.091 97.7562L114.386 97.7917C114.752 97.7815 115.117 97.816 115.474 97.893C115.835 97.973 116.155 98.1787 116.383 98.4735C116.41 98.5109 116.442 98.5565 116.488 98.5626C116.526 98.5636 116.564 98.5504 116.594 98.5271C116.947 98.3468 117.345 98.2769 117.737 98.3276C118.978 98.4096 120.125 99.0408 121.097 99.83C121.273 99.9535 121.408 100.126 121.489 100.326C121.569 100.592 121.473 100.924 121.684 101.114C121.684 103.306 122.424 105.354 122.918 107.491C123.005 107.871 123.364 108.208 123.612 108.507C123.92 108.838 124.17 109.219 124.354 109.634C124.772 110.743 124.195 112.045 124.602 113.158C124.774 113.628 125.108 114.015 125.385 114.423C125.751 114.895 125.983 115.461 126.055 116.057C126.073 116.325 126.039 116.593 126.055 116.855C126.081 117.213 126.146 117.569 126.251 117.912C126.417 118.555 126.592 119.198 126.775 119.839C127.073 120.875 127.46 121.994 128.372 122.546C126.17 122.926 123.849 123.299 121.751 122.52C121.458 122.418 121.181 122.276 120.925 122.099C120.168 121.549 119.802 120.609 119.475 119.719C119.111 118.724 118.741 117.71 118.666 116.649C118.667 116.312 118.621 115.976 118.528 115.653C118.314 115.075 117.745 114.726 117.228 114.405C116.645 114.08 116.116 113.661 115.662 113.166C115.438 112.916 115.265 112.622 115.156 112.302C115.047 111.982 115.003 111.642 115.029 111.305C115.068 110.976 115.195 110.659 115.207 110.328C115.218 109.997 115.073 109.619 114.762 109.531C113.159 109.037 112.394 107.104 112.038 105.438C111.884 104.577 111.815 103.703 111.832 102.828L111.811 101.128C111.589 100.923 111.412 100.674 111.288 100.397C111.164 100.12 111.097 99.8198 111.091 99.5159C111.112 99.3376 111.109 99.1583 111.081 98.981C111.003 98.7652 110.878 98.5707 110.713 98.4137C110.358 98.0439 110.063 97.6215 109.834 97.1605Z" fill="#FA7268"/>
<path fill-rule="evenodd" clip-rule="evenodd" d="M105.182 102.194C105.128 102.72 105.246 103.26 105.13 103.777C105.085 103.975 105.008 104.175 104.95 104.36C104.777 105.103 104.853 105.884 105.164 106.578C105.475 107.266 105.848 107.923 106.277 108.541C106.423 108.752 106.542 108.98 106.634 109.22C106.708 109.473 106.754 109.733 106.771 109.996C106.884 111.051 107.065 112.097 107.315 113.128C107.534 114.021 110.023 121.653 110.602 122.36C110.708 122.518 110.867 122.628 111.049 122.669C111.18 122.675 111.31 122.647 111.428 122.589L112.603 122.132C112.703 122.1 112.795 122.048 112.875 121.98C112.985 121.849 113.045 121.682 113.043 121.51C113.128 120.537 110.632 112.851 110.315 111.933C109.356 109.159 108.08 106.485 107.455 103.613C107.281 102.815 107.19 101.589 106.616 100.952C106.379 100.69 106.459 100.801 106.176 100.938C106.033 101.002 105.893 101.076 105.761 101.16C105.595 101.278 105.456 101.432 105.356 101.61C105.255 101.789 105.196 101.989 105.182 102.194Z" fill="#FA7268"/>
<path fill-rule="evenodd" clip-rule="evenodd" d="M108.121 107.937C108.437 109.632 108.761 111.324 109.084 113.02L113.68 111.795C113.717 111.305 113.46 110.85 113.288 110.4C112.869 109.33 112.859 108.138 112.521 107.038C112.264 106.201 111.818 105.432 111.578 104.589C111.438 104.099 111.368 103.593 111.231 103.096C111.084 102.609 110.904 102.133 110.691 101.672C110.433 101.002 110.096 100.368 109.689 99.7804C109.102 100.004 108.475 100.263 108.141 100.803C107.969 101.108 107.871 101.449 107.856 101.799C107.775 102.85 108.149 103.906 108.026 104.95C107.898 105.944 107.931 106.953 108.121 107.937Z" fill="#DADADA"/>
<path fill-rule="evenodd" clip-rule="evenodd" d="M114.378 130.157C114.636 131.154 114.262 132.203 113.957 133.188C113.497 134.675 113.184 136.203 113.021 137.752C113.001 138.146 112.923 138.535 112.79 138.906C112.646 139.238 112.399 139.52 112.231 139.836C111.768 140.67 111.78 141.686 111.881 142.638C111.946 143.266 112.047 143.891 112.17 144.509C112.32 145.265 112.506 146.053 112.29 146.791C112.654 146.71 112.899 147.19 112.877 147.566C112.853 147.943 112.733 148.363 112.911 148.688C113.362 148.855 113.366 149.486 113.352 149.974C113.359 150.82 113.465 151.663 113.666 152.484C114.346 155.819 115.069 159.144 115.834 162.46C117.487 162.983 119.419 163.526 120.996 162.802C121.29 162.67 121.584 162.456 121.65 162.134C121.667 161.959 121.646 161.783 121.587 161.619L120.84 158.849C120.658 158.18 120.476 157.488 120.572 156.801C120.644 156.288 120.863 155.736 120.616 155.284C120.533 155.128 120.4 155.007 120.302 154.86C119.91 154.275 120.116 153.494 120.147 152.787C120.16 152.628 120.149 152.469 120.116 152.313C120.062 152.131 119.988 151.956 119.893 151.793C119.275 150.572 118.978 149.208 119.031 147.835C119.055 147.66 119.031 147.482 118.963 147.32C118.916 147.252 118.873 147.182 118.835 147.108C118.807 146.98 118.821 146.846 118.877 146.727C118.652 146.554 118.45 146.353 118.274 146.129C118.383 146.06 118.474 145.968 118.543 145.858C118.611 145.747 118.653 145.623 118.667 145.494C118.681 145.364 118.666 145.234 118.623 145.111C118.58 144.989 118.51 144.877 118.419 144.786C118.499 144.77 118.573 144.731 118.632 144.675C118.692 144.619 118.735 144.546 118.757 144.466C118.778 144.387 118.778 144.302 118.755 144.223C118.733 144.143 118.688 144.071 118.628 144.015C118.533 143.947 118.406 143.918 118.337 143.815C118.231 143.669 118.317 143.463 118.404 143.306L118.859 142.467C119.2 141.843 119.276 141.072 119.642 140.474C120.167 139.603 120.509 138.633 120.848 137.672L122.165 133.971L123.051 134.755C123.347 134.985 123.594 135.272 123.779 135.599C123.906 135.924 123.985 136.265 124.016 136.613C124.342 138.62 125.582 140.363 126.042 142.341C126.143 142.782 126.212 143.244 126.461 143.621C126.549 143.736 126.63 143.859 126.7 143.988C126.764 144.183 126.798 144.389 126.799 144.595C126.841 145 126.966 145.391 127.169 145.741C127.372 146.092 127.646 146.395 127.974 146.628C128.41 146.933 128.952 147.141 129.189 147.624C129.237 147.773 129.302 147.916 129.385 148.048C129.596 148.307 130.053 148.338 130.142 148.662C130.193 148.843 130.099 149.061 130.199 149.22C130.256 149.294 130.33 149.351 130.416 149.385L131.69 150.034C133.115 150.759 133.844 152.424 134.894 153.638C135.257 154.033 135.579 154.466 135.853 154.93C136.307 155.756 136.517 156.795 137.284 157.321C137.49 157.43 137.678 157.572 137.839 157.741C138.08 158.064 137.993 158.516 138.013 158.923C138.035 159.33 138.341 159.814 138.721 159.69C138.588 160.183 138.588 160.702 138.721 161.195C140.387 161.107 141.977 160.452 143.234 159.334C143.605 159.002 143.963 158.58 143.967 158.078C143.973 157.991 143.954 157.905 143.913 157.829C143.838 157.731 143.738 157.655 143.625 157.607C142.433 156.95 142.075 155.425 141.472 154.188C140.946 153.096 140.167 152.156 139.515 151.141C138.098 148.959 137.131 146.319 134.988 144.878C134.516 144.561 133.969 144.28 133.732 143.756C133.601 143.463 133.585 143.129 133.481 142.826C133.378 142.523 133.129 142.228 132.812 142.228C132.988 141.789 132.953 141.255 132.965 140.781C132.977 140.571 132.953 140.36 132.894 140.157C132.813 139.939 132.707 139.733 132.579 139.539C132.02 138.576 131.74 137.471 131.773 136.351C131.788 135.775 131.888 135.181 131.718 134.631C131.632 134.354 131.481 134.101 131.377 133.835C131.221 133.35 131.138 132.845 131.132 132.335L131.015 130.421C130.998 129.782 130.916 129.148 130.772 128.527C130.381 127.041 129.99 120.814 128.649 120.112C127.309 119.411 125.005 124.203 123.496 124.297C122.828 124.325 122.169 124.455 121.539 124.682C120.535 125.065 119.693 125.778 118.873 126.475L116.098 128.848C115.51 129.341 115.026 129.811 114.378 130.157Z" fill="#464353"/>
<path fill-rule="evenodd" clip-rule="evenodd" d="M101.062 89.9768C101.673 89.1279 102.721 88.6781 103.754 88.6396C104.788 88.6021 105.806 88.9334 106.731 89.4014C107.005 89.5594 107.297 89.681 107.601 89.7641C108.089 89.8654 108.633 89.7296 109.076 89.9636C109.663 90.2797 109.777 91.0871 109.726 91.7568C109.675 92.4264 109.552 93.17 109.902 93.7495C110.026 93.9146 110.14 94.0888 110.24 94.2692C110.392 94.6146 110.303 95.0128 110.213 95.3775C109.985 95.1779 109.855 94.877 109.651 94.646C109.448 94.4151 109.094 94.2601 108.841 94.4333C108.589 94.6065 108.593 94.9216 108.579 95.2042C108.565 95.4869 108.495 95.8263 108.232 95.9174C108.123 95.9428 108.009 95.9347 107.904 95.8931C107.8 95.8516 107.709 95.7786 107.645 95.6844C107.198 95.1262 107.377 94.2357 106.933 93.6735C106.68 93.3544 106.259 93.1994 106.027 92.8651C105.843 92.6017 105.796 92.2663 105.636 91.9837C105.475 91.7011 105.101 91.4934 104.853 91.6889C104.768 91.771 104.697 91.8682 104.644 91.9736C104.488 92.1995 104.263 92.3666 104.004 92.4457C103.744 92.5257 103.467 92.5135 103.215 92.4122C103.022 92.2917 102.814 92.2005 102.596 92.1397C102.454 92.1316 102.311 92.165 102.187 92.236C102.062 92.3059 101.959 92.4112 101.89 92.5378C101.749 92.7911 101.682 93.0798 101.694 93.3706C101.694 93.7697 101.764 94.1942 101.541 94.5123C101.456 94.6329 101.35 94.7352 101.228 94.8152C100.902 95.029 100.445 95.1718 100.143 94.9287C100.042 94.8324 99.9653 94.7099 99.9235 94.5751C99.8807 94.4394 99.8727 94.2955 99.9006 94.1557C99.9593 93.8781 100.037 93.6056 100.131 93.3392C100.305 92.7212 100.079 92.0252 100.267 91.4437C100.464 90.92 100.731 90.4266 101.062 89.9768Z" fill="#464353"/>
<path fill-rule="evenodd" clip-rule="evenodd" d="M102.884 104.221C102.855 104.366 102.87 104.517 102.926 104.652C102.985 104.746 103.064 104.823 103.157 104.878C103.816 105.296 104.564 105.543 105.338 105.598C105.444 105.6 105.546 105.627 105.64 105.677C105.824 105.8 105.835 106.076 105.767 106.295C105.675 106.501 105.628 106.726 105.628 106.952C105.684 107.368 106.17 107.55 106.579 107.612C107.152 107.685 107.781 107.648 108.234 107.283C108.542 106.998 108.777 106.64 108.917 106.241C110.041 103.613 110.434 100.707 111.572 98.0867C111.657 97.9155 111.715 97.7311 111.742 97.5406C111.754 97.4454 111.741 97.3482 111.703 97.26C111.666 97.1719 111.606 97.0949 111.53 97.0382C111.319 96.9055 110.991 96.9804 110.847 96.7717C110.777 96.6654 110.785 96.5225 110.722 96.4111C110.591 96.174 110.246 96.2115 110.011 96.0737C109.827 95.9744 109.7 95.7688 109.495 95.7293C109.394 95.7232 109.293 95.7414 109.201 95.783C109.108 95.8235 109.025 95.8853 108.961 95.9643C108.293 96.5985 107.943 97.4971 107.571 98.346C107.003 99.6468 106.338 100.902 105.583 102.1C105.67 101.961 105.16 100.904 104.96 100.858C104.61 100.787 104.162 101.413 103.972 101.646C103.376 102.381 102.999 103.275 102.884 104.221Z" fill="#DADADA"/>
<path opacity="0.1" fill-rule="evenodd" clip-rule="evenodd" d="M110.026 95.7281C109.886 95.7312 109.747 95.7656 109.622 95.8294C109.496 95.8943 109.386 95.9855 109.301 96.0989C109.091 96.3765 109.05 96.7432 108.997 97.0958C108.819 98.2132 108.427 99.284 107.844 100.248" fill="black"/>
<path opacity="0.1" fill-rule="evenodd" clip-rule="evenodd" d="M110.976 96.7412C110.782 96.7453 110.592 96.801 110.426 96.9023C110.26 97.0046 110.122 97.1485 110.027 97.3207C109.898 97.6337 109.817 97.966 109.788 98.3054C109.62 99.0561 109.297 99.7622 108.839 100.375" fill="black"/>
<path fill-rule="evenodd" clip-rule="evenodd" d="M157.638 135.464V132.989C157.638 131.167 156.927 129.42 155.661 128.132C154.396 126.843 152.679 126.12 150.89 126.12H54.8938C53.1048 126.12 51.3885 126.843 50.1229 128.132C48.8573 129.42 48.1469 131.167 48.1459 132.989V137.553L157.638 135.464Z" fill="#33323D"/>
<path fill-rule="evenodd" clip-rule="evenodd" d="M81.9813 123.143C81.9813 123.143 81.7077 140.452 84.7214 146.147C87.7352 151.843 89.0277 176.618 89.0277 176.618C89.0277 176.618 120.624 179.946 142.642 172.633C164.659 165.32 211.509 162.328 211.509 162.328L203.614 108.147C203.614 108.147 164.61 105.6 142.423 116.375C120.234 127.15 81.9813 123.143 81.9813 123.143Z" fill="#8DD070"/>
<path opacity="0.1" fill-rule="evenodd" clip-rule="evenodd" d="M81.9813 123.143C81.9813 123.143 81.7077 140.452 84.7214 146.147C87.7352 151.843 89.0277 176.618 89.0277 176.618C89.0277 176.618 120.624 179.946 142.642 172.633C164.659 165.32 211.509 162.328 211.509 162.328L203.614 108.147C203.614 108.147 164.61 105.6 142.423 116.375C120.234 127.15 81.9813 123.143 81.9813 123.143Z" fill="black"/>
<path fill-rule="evenodd" clip-rule="evenodd" d="M89.134 129.693C89.134 129.693 88.146 143.974 90.6254 148.538C93.1049 153.102 93.2203 173.474 93.2203 173.474C93.2203 173.474 121.655 174.816 141.883 167.805C162.11 160.795 204.615 156.248 204.615 156.248L199.785 111.939C199.785 111.939 164.615 111.57 144.089 121.438C123.562 131.307 89.134 129.693 89.134 129.693Z" fill="#8DD070"/>
<path opacity="0.1" fill-rule="evenodd" clip-rule="evenodd" d="M143.255 160.169C147.301 159.656 149.704 152.078 148.623 143.242C147.542 134.407 143.386 127.661 139.341 128.174C135.294 128.687 132.891 136.265 133.972 145.1C135.052 153.936 139.208 160.682 143.255 160.169Z" fill="black"/>
<path opacity="0.2" fill-rule="evenodd" clip-rule="evenodd" d="M182.277 81.5452C182.277 81.5452 144.384 91.3102 126.516 108.497C108.646 125.684 71.0302 133.823 71.0302 133.823C71.0302 133.823 75.9851 150.381 80.5689 154.861C85.1528 159.341 93.8468 182.519 93.8468 182.519C93.8468 182.519 124.92 175.812 143.67 161.966C162.419 148.121 206.116 130.634 206.116 130.634L182.277 81.5452Z" fill="black"/>
<path fill-rule="evenodd" clip-rule="evenodd" d="M70.0352 131.794C70.0352 131.794 74.9892 148.354 79.569 152.834C84.1478 157.313 92.8459 180.491 92.8459 180.491C92.8459 180.491 123.924 173.786 142.675 159.94C161.426 146.095 205.119 128.614 205.119 128.614L181.28 79.5191C181.28 79.5191 143.389 89.283 125.521 106.471C107.652 123.658 70.0352 131.794 70.0352 131.794Z" fill="#8DD070"/>
<path opacity="0.1" fill-rule="evenodd" clip-rule="evenodd" d="M70.0352 131.794C70.0352 131.794 74.9892 148.354 79.569 152.834C84.1478 157.313 92.8459 180.491 92.8459 180.491C92.8459 180.491 123.924 173.786 142.675 159.94C161.426 146.095 205.119 128.614 205.119 128.614L181.28 79.5191C181.28 79.5191 143.389 89.283 125.521 106.471C107.652 123.658 70.0352 131.794 70.0352 131.794Z" fill="black"/>
<path fill-rule="evenodd" clip-rule="evenodd" d="M78.9899 136.057C78.9899 136.057 82.3549 149.961 86.091 153.528C89.8271 157.095 96.0725 176.444 96.0725 176.444C96.0725 176.444 123.539 168.836 140.677 155.843C157.816 142.85 196.905 125.26 196.905 125.26L178.955 84.5844C178.955 84.5844 145.372 95.2196 128.809 111.026C112.246 126.832 78.9899 136.057 78.9899 136.057Z" fill="#8DD070"/>
<path opacity="0.1" fill-rule="evenodd" clip-rule="evenodd" d="M139.906 147.588C143.602 145.836 143.606 137.872 139.914 129.801C136.223 121.729 130.234 116.607 126.538 118.359C122.842 120.112 122.839 128.076 126.53 136.147C130.221 144.218 136.21 149.341 139.906 147.588Z" fill="black"/>
<path opacity="0.1" fill-rule="evenodd" clip-rule="evenodd" d="M160.224 138.117V206.866C160.224 207.647 160.073 208.42 159.779 209.142C159.486 209.863 159.055 210.518 158.513 211.07C157.971 211.622 157.327 212.059 156.618 212.358C155.91 212.657 155.151 212.811 154.384 212.81H53.9824C52.4342 212.81 50.9497 212.183 49.8553 211.069C48.7608 209.954 48.1459 208.442 48.1459 206.866V131.185C51.0224 132.273 51.0224 132.273 53.9824 132.182H154.384C155.931 132.182 157.414 132.807 158.509 133.92C159.604 135.032 160.22 136.542 160.224 138.117Z" fill="black"/>
<path fill-rule="evenodd" clip-rule="evenodd" d="M160.224 139.131V207.881C160.223 209.457 159.607 210.969 158.513 212.084C157.417 213.198 155.932 213.825 154.384 213.825H53.9824C52.4342 213.824 50.9497 213.198 49.8553 212.083C48.7608 210.968 48.1459 209.457 48.1459 207.881V132.198C51.0224 133.284 51.0224 133.284 53.9824 133.194H154.384C155.931 133.194 157.414 133.819 158.51 134.933C159.604 136.045 160.221 137.556 160.224 139.131Z" fill="#504F60"/>
<path opacity="0.1" fill-rule="evenodd" clip-rule="evenodd" d="M160.332 164.617V186.603H139.39C136.552 186.564 133.844 185.388 131.85 183.331C129.856 181.273 128.738 178.5 128.738 175.609C128.738 172.719 129.856 169.945 131.85 167.889C133.844 165.831 136.552 164.656 139.39 164.617H160.332Z" fill="black"/>
<path fill-rule="evenodd" clip-rule="evenodd" d="M160.332 163.604V185.593H139.39C136.552 185.555 133.843 184.379 131.85 182.322C129.856 180.264 128.738 177.491 128.738 174.6C128.738 171.71 129.856 168.936 131.85 166.879C133.843 164.822 136.552 163.646 139.39 163.608L160.332 163.604Z" fill="#33323D"/>
<path opacity="0.1" fill-rule="evenodd" clip-rule="evenodd" d="M140.908 179.268C143.233 179.268 145.118 177.349 145.118 174.981C145.118 172.615 143.233 170.695 140.908 170.695C138.583 170.695 136.698 172.615 136.698 174.981C136.698 177.349 138.583 179.268 140.908 179.268Z" fill="black"/>
<path fill-rule="evenodd" clip-rule="evenodd" d="M140.908 179.268C143.232 179.268 145.118 177.349 145.118 174.981C145.118 172.614 143.232 170.695 140.908 170.695C138.583 170.695 136.698 172.614 136.698 174.981C136.698 177.349 138.583 179.268 140.908 179.268Z" fill="#FA7268"/>
<path fill-rule="evenodd" clip-rule="evenodd" d="M127.294 120.175C126.913 120.52 126.56 120.897 126.239 121.302C125.917 121.712 125.745 122.225 125.754 122.751C125.756 122.904 125.804 123.052 125.891 123.175C125.936 123.235 125.998 123.279 126.067 123.3C126.138 123.322 126.212 123.321 126.282 123.297C126.361 123.256 126.428 123.196 126.478 123.122C126.685 122.868 126.904 122.626 127.136 122.396C127.219 122.31 127.332 122.221 127.445 122.252C127.496 122.272 127.542 122.302 127.578 122.343C127.71 122.458 127.805 122.611 127.854 122.781C127.923 123.086 127.749 123.391 127.551 123.63C127.353 123.869 127.12 124.098 127.039 124.399C127.009 124.478 127.009 124.566 127.039 124.646C127.077 124.704 127.131 124.75 127.193 124.778C127.473 124.935 127.784 125.027 128.103 125.048C128.422 125.07 128.742 125.02 129.04 124.902C129.431 124.739 129.779 124.463 130.183 124.319C130.358 124.27 130.527 124.204 130.688 124.12C130.803 124.041 130.902 123.941 130.979 123.824C131.056 123.706 131.11 123.575 131.136 123.437C131.187 123.16 131.197 122.877 131.165 122.598C131.117 121.515 130.889 120.448 130.492 119.443C130.469 119.378 130.43 119.321 130.378 119.276C130.32 119.24 130.252 119.22 130.183 119.222C129.682 119.168 128.86 118.907 128.377 119.097C128.207 119.191 128.061 119.323 127.95 119.483C127.86 119.585 127.294 120.041 127.294 120.175Z" fill="#FFCDD3"/>
<path fill-rule="evenodd" clip-rule="evenodd" d="M127.806 119.417C127.806 118.931 127.219 117.757 128.152 117.679C128.152 117.159 127.43 116.836 127.565 116.284C127.608 116.101 127.761 115.952 127.779 115.764C127.838 115.232 126.894 114.944 127.051 114.433C127.11 114.233 127.317 114.118 127.362 113.921C127.468 113.46 126.659 113.256 126.644 112.783C126.644 112.624 126.731 112.474 126.724 112.315C126.724 112.115 126.553 111.964 126.46 111.791C126.215 111.346 126.334 110.658 125.888 110.429C126.183 110.456 126.28 110.009 126.158 109.736C126.037 109.463 125.788 109.226 125.786 108.923C125.801 108.814 125.801 108.702 125.786 108.593C125.705 108.301 125.236 108.278 125.158 107.995C125.148 107.886 125.144 107.777 125.148 107.668C125.117 107.443 124.89 107.299 124.677 107.235C124.455 107.197 124.242 107.12 124.046 107.006C123.91 106.901 123.751 106.726 123.604 106.807C123.55 106.841 123.522 106.905 123.481 106.953C123.305 107.161 122.968 107.07 122.747 106.916C122.093 106.464 121.769 105.653 121.629 104.862C121.49 104.07 121.494 103.254 121.32 102.471C121.267 102.227 121.196 101.986 121.109 101.753C121.034 101.554 120.795 101.241 120.78 101.04C120.745 100.581 121.676 100.894 122.03 100.94C122.374 100.974 122.715 101.041 123.046 101.14C123.4 101.275 123.748 101.43 124.086 101.604C125.499 102.24 127.205 102.317 128.34 103.386C128.714 103.736 129.03 104.196 129.514 104.356C129.737 104.4 129.957 104.457 130.172 104.529C130.71 104.787 130.795 105.514 131.088 106.04C131.181 106.179 131.262 106.325 131.329 106.478C131.386 106.658 131.412 106.847 131.407 107.036L131.449 108.417C131.515 110.73 131.582 113.05 131.339 115.35C131.261 116.109 131.143 116.89 131.364 117.619C131.423 117.819 131.505 118.006 131.56 118.208C131.609 118.444 131.634 118.684 131.635 118.925L131.666 119.819C131.676 119.889 131.662 119.96 131.623 120.019C131.59 120.045 131.552 120.065 131.51 120.075C131.469 120.085 131.427 120.086 131.386 120.077C130.162 119.965 128.925 119.263 127.771 119.688" fill="#FA7268"/>
<path fill-rule="evenodd" clip-rule="evenodd" d="M195.649 186.006C195.395 184.897 195.236 183.922 195.236 183.922C195.236 183.922 195.295 182.715 194.763 181.808V181.505V179.273C194.914 178.867 195.099 178.476 195.316 178.103C195.708 177.401 195.316 174.831 195.316 174.831C195.316 174.831 193.854 171.206 194.209 168.907C194.563 166.607 191.207 158.696 191.207 158.696C191.227 157.933 191.333 157.174 191.521 156.436C191.557 156.281 191.572 156.121 191.564 155.962C191.564 155.942 191.564 155.924 191.564 155.904C191.564 155.884 191.564 155.916 191.564 155.922C191.513 154.406 190.335 151.564 190.335 151.564L190.494 146.147C190.494 146.147 191.246 142.959 190.02 138.665C189.592 137.168 189.317 135.971 189.143 135.046C189.124 134.943 189.104 134.846 189.088 134.745C191.612 134.347 193.539 134.028 193.539 134.028C193.539 134.028 192.075 127.792 191.087 126.7C190.098 125.608 189.307 122.179 189.307 122.179C189.307 122.179 188.793 117.777 189.625 116.49C190.456 115.202 190.574 112.982 190.574 112.982C190.574 112.982 192.47 111.587 192.709 110.955C192.948 110.324 193.342 108.929 193.342 108.19C193.342 107.45 193.105 106.795 193.183 106.397C193.261 105.997 192.63 104.525 192.946 103.823C193.028 103.609 193.07 103.38 193.071 103.149C193.072 103.142 193.072 103.134 193.071 103.128C193.074 102.514 193.019 101.902 192.905 101.299C192.357 100.828 191.716 100.479 191.027 100.277L190.985 100.109L190.877 99.6708C190.818 99.6303 190.755 99.5928 190.691 99.5594V99.3993L190.673 98.7661L190.971 97.3438C191.559 94.8679 188.311 94.5001 188.311 94.5001C188.114 94.1202 187.787 93.8274 187.392 93.6785C186.74 93.4455 187.285 97.4015 187.587 97.6639C187.817 97.8635 188.525 99.0954 188.868 99.7042L188.922 99.8045C188.869 99.8531 188.819 99.9068 188.773 99.9636L188.896 100.823L188.916 100.954C188.701 101.226 188.526 101.529 188.398 101.853C188.398 101.853 188.985 102.514 188.874 103.248C188.762 103.981 189.056 104.911 189.07 104.962C189.034 104.919 188.617 104.462 188.2 104.573C187.783 104.684 186.619 105.041 186.619 105.041C186.619 105.041 185.749 105.197 185.836 105.392C185.922 105.587 185.249 106.444 185.249 106.444L182.912 104.188C182.889 104.12 182.863 104.053 182.843 103.989C182.748 103.664 182.683 103.33 182.648 102.993C182.903 102.931 183.152 102.851 183.395 102.752C183.641 102.665 183.863 102.521 184.041 102.329C184.278 102.044 184.323 101.657 184.419 101.303C184.603 100.609 185.006 99.994 185.286 99.3345C185.76 98.2191 185.912 96.9902 185.726 95.7908C185.691 95.421 185.567 95.0654 185.368 94.7544C184.986 94.2205 184.294 94.0037 183.79 93.5772C183.288 93.1507 182.962 92.4993 182.375 92.1822C181.845 91.8935 181.201 91.9269 180.602 92.0262C179.432 92.2227 178.309 92.6391 177.289 93.254C176.949 93.4536 176.573 93.6988 176.182 93.6248C175.844 93.563 175.594 93.2905 175.383 93.0271C175.385 93.016 175.389 93.0058 175.393 92.9947C175.383 92.9856 175.375 92.9744 175.367 92.9633C175.119 93.5225 174.995 94.1314 175.003 94.7443C175.003 94.8405 175.003 94.9438 175.015 95.0299V95.1292C175.015 95.1576 175.015 95.1849 175.015 95.2113C175.015 95.2538 175.009 95.2954 174.997 95.3369C174.948 95.4585 174.873 95.5679 174.778 95.657C174.706 95.7401 174.64 95.8293 174.582 95.9225C174.582 95.8911 174.602 95.8586 174.614 95.8252C174.464 96.0471 174.38 96.3074 174.371 96.5759C174.36 96.7714 174.423 96.9639 174.547 97.1138C174.664 97.2303 174.792 97.3337 174.929 97.4248C174.882 97.6882 174.858 97.9547 174.858 98.2221C174.862 99.0143 175.067 99.7924 175.453 100.48C175.839 101.168 176.394 101.744 177.062 102.15C177.089 102.216 177.115 102.283 177.14 102.349C177.439 103.147 177.665 104.083 177.565 104.94C177.565 105.002 177.548 105.065 177.538 105.127C177.528 105.189 177.479 105.193 177.453 105.226C177.453 105.226 173.592 105.266 172.683 104.429C171.776 103.592 170.39 106.476 170.39 106.476C170.39 106.476 169.006 106.749 168.728 106.476C168.451 106.203 166.832 106.438 166.832 106.438C166.168 105.837 165.306 105.517 164.419 105.542C163.881 105.125 163.288 104.79 162.657 104.545L162.614 104.529C162.336 104.426 162.038 104.388 161.744 104.418C161.744 104.418 159.845 102.823 159.291 101.962C158.737 101.101 156.101 97.9233 156.089 97.9091V97.7561L156.059 97.2931C155.982 97.3063 155.902 97.3124 155.823 97.3134C155.81 97.2678 155.79 97.2141 155.77 97.1523C155.619 96.7015 155.431 96.2628 155.211 95.8424C155.211 95.8424 155.211 95.2589 155.377 95.111C155.543 94.9641 155.308 92.8215 155.308 92.8215C155.308 92.8215 153.598 88.751 152.066 91.7891C152.066 91.7891 149.168 93.7565 151.599 96.0481C151.599 96.0481 152.578 96.5262 152.707 96.9051C152.797 97.1503 153.126 97.8371 153.347 98.3001L153.447 98.4987L153.42 98.523L153.455 98.9059L153.471 99.0528C153.013 99.3183 152.701 99.5806 152.778 99.7782C152.912 100.116 153.005 100.469 153.054 100.831C153.054 100.831 156.416 105.119 156.85 106.951C156.85 106.951 165.867 112.406 168.832 112.795L168.307 115.515C168.231 116.254 168.192 116.995 168.19 117.737C168.229 118.321 167.834 120.972 167.834 120.972C167.834 120.972 167.319 124.869 166.885 125.415C166.45 125.961 166.528 128.299 166.528 128.299C166.426 129.417 166.23 130.526 165.941 131.611C165.507 133.091 165.822 134.924 165.822 134.924C165.822 134.924 164.321 138.432 167.918 136.054C167.918 136.054 169.68 135.943 171.719 135.871C171.719 135.939 171.719 136.008 171.719 136.07C171.719 136.338 171.719 136.626 171.705 136.929C171.677 138.938 171.667 141.712 171.756 143.8C171.914 147.503 173.023 154.83 173.023 154.83V158.519C172.951 158.864 172.915 159.217 172.917 159.57C172.893 160.868 173.233 162.147 173.895 163.255L174.173 165.711C174.173 165.711 174.823 167.328 174.834 168.301C174.833 168.379 174.823 168.457 174.808 168.534C174.782 168.658 174.772 168.784 174.776 168.911C174.739 170.026 175.399 172.697 175.399 172.697C175.399 172.697 175.437 175.385 175.832 175.542C176.172 175.676 175.381 177.091 175.146 177.498C175.14 177.472 175.135 177.447 175.132 177.422L175.083 177.502C175.002 177.719 174.96 177.95 174.96 178.183C174.938 178.367 174.967 178.553 175.044 178.72C175.122 178.887 175.245 179.028 175.399 179.128C176.15 179.596 176.553 179.985 175.915 180.14C175.68 180.177 175.447 180.227 175.219 180.29C175.219 180.259 175.195 180.228 175.185 180.199C175.095 180.236 175.02 180.302 174.973 180.388C174.925 180.473 174.908 180.573 174.925 180.669C174.931 180.986 175.011 181.297 175.158 181.574C175.79 183.018 176.228 183.567 176.228 183.567L176.532 183.533C176.487 183.652 176.427 183.763 176.356 183.867C176.24 184.034 176.087 184.17 175.909 184.265C175.744 184.366 175.559 184.43 175.367 184.454C175.153 184.461 174.942 184.514 174.749 184.609C174.557 184.705 174.386 184.841 174.247 185.008C173.856 185.528 173.606 186.235 174.385 186.857L177.212 187.854C177.212 187.854 182.078 188.497 181.82 187.385C181.561 186.274 181.405 185.301 181.405 185.301C181.426 184.622 181.292 183.948 181.013 183.33C180.963 183.229 180.905 183.132 180.841 183.039L181.013 183.022C181.013 183.022 181.369 180.564 181.843 180.098C181.952 179.991 181.978 179.898 181.953 179.843C182.002 179.709 181.877 179.632 181.718 179.585L181.683 179.684C181.528 179.649 181.369 179.631 181.211 179.63C181.211 179.63 181.053 178.344 181.567 177.876C181.609 177.823 181.639 177.761 181.656 177.695C181.674 177.629 181.677 177.56 181.667 177.493C181.671 177.317 181.653 177.141 181.612 176.97C181.607 176.981 181.601 176.991 181.594 177.001C181.337 175.833 180.459 173.978 180.459 173.978C180.459 173.978 180.42 172.81 180.738 172.342C181.054 171.874 180.696 165.989 180.696 165.989C180.696 165.989 180.815 163.145 180.459 161.82C180.103 160.495 180.894 158.935 180.894 158.935C180.894 158.935 180.894 158.905 180.894 158.851V158.832L180.849 158.383C180.848 158.392 180.848 158.401 180.849 158.411C180.768 157.658 180.618 156.293 180.507 155.663C180.348 154.766 180.548 150.482 180.548 150.482L181.258 148.648L182.525 151.807L183.869 156.015C183.869 156.015 184.534 156.904 184.55 157.809C184.55 157.853 184.55 157.897 184.55 157.94C184.539 158.033 184.533 158.128 184.534 158.222C184.511 158.754 184.654 159.279 184.943 159.722C184.943 159.722 185.3 161.715 185.854 162.215C186.407 162.715 186.407 163.696 186.407 163.696C186.407 163.696 187.079 166.581 187.386 167.083C187.652 167.51 187.666 168.678 187.664 169.042C187.664 169.108 187.664 169.146 187.664 169.146C187.664 169.146 187.758 170.178 187.754 171.043C187.754 171.151 187.754 171.254 187.754 171.352C187.755 171.344 187.755 171.337 187.754 171.33C187.753 171.566 187.726 171.802 187.672 172.031L187.66 172.072C187.66 172.021 187.66 171.973 187.674 171.926C187.536 172.513 187.471 173.115 187.478 173.719C187.461 174.755 187.615 175.983 188.232 176.708C189.3 177.955 189.971 177.8 189.971 177.8C189.971 177.8 189.459 179.359 188.825 179.672C188.801 179.683 188.778 179.698 188.758 179.715C188.758 179.684 188.746 179.653 188.742 179.624C188.672 179.701 188.618 179.793 188.584 179.893C188.55 179.994 188.537 180.1 188.546 180.205C188.501 180.891 188.926 181.999 189.329 182.515C189.479 182.664 189.663 182.774 189.863 182.834C189.832 182.857 189.799 182.878 189.764 182.896C189.693 182.935 189.621 182.97 189.546 183.002C189.444 183.046 189.335 183.074 189.224 183.087C189.009 183.093 188.798 183.145 188.605 183.241C188.412 183.337 188.242 183.473 188.104 183.641C187.712 184.159 187.463 184.867 188.241 185.489L191.069 186.484C191.069 186.484 195.903 187.117 195.649 186.006Z" fill="url(#paint0_linear_8_201)"/>
<path fill-rule="evenodd" clip-rule="evenodd" d="M177.741 188.316L175.001 187.319C174.245 186.698 174.486 185.99 174.867 185.47C174.999 185.304 175.164 185.169 175.351 185.073C175.538 184.978 175.743 184.924 175.952 184.916C176.137 184.891 176.316 184.828 176.474 184.726C176.648 184.63 176.797 184.494 176.909 184.328C177.109 184.005 177.216 183.632 177.22 183.25C177.22 183.25 180.226 182.354 181.048 183.25C181.195 183.412 181.318 183.596 181.412 183.794C181.686 184.413 181.819 185.086 181.803 185.765C181.803 185.765 181.956 186.737 182.205 187.85C182.454 188.961 177.741 188.316 177.741 188.316Z" fill="#2D293D"/>
<path fill-rule="evenodd" clip-rule="evenodd" d="M190.675 186.294L187.935 185.298C187.18 184.676 187.421 183.968 187.802 183.451C187.932 183.284 188.096 183.148 188.283 183.053C188.47 182.956 188.675 182.904 188.884 182.897C188.993 182.886 189.098 182.856 189.198 182.811C189.269 182.779 189.34 182.745 189.409 182.705C190.174 182.277 190.155 181.224 190.155 181.224C190.155 181.224 193.159 180.328 193.983 181.224C194.093 181.346 194.19 181.479 194.27 181.623C194.786 182.53 194.729 183.74 194.729 183.74C194.729 183.74 194.881 184.714 195.12 185.823C195.359 186.934 190.675 186.294 190.675 186.294Z" fill="#2D293D"/>
<path opacity="0.1" fill-rule="evenodd" clip-rule="evenodd" d="M180.634 183.251C180.781 183.413 180.904 183.596 180.998 183.795L176.497 184.327C176.697 184.004 176.804 183.631 176.808 183.249C176.808 183.249 179.812 182.354 180.634 183.251Z" fill="black"/>
<path opacity="0.1" fill-rule="evenodd" clip-rule="evenodd" d="M194.505 181.623V182.481C193.803 183.655 190.415 183.398 189.431 182.811C189.504 182.779 189.575 182.745 189.643 182.705C190.409 182.277 190.389 181.224 190.389 181.224C190.389 181.224 193.392 180.328 194.216 181.224C194.327 181.346 194.423 181.479 194.505 181.623Z" fill="black"/>
<path fill-rule="evenodd" clip-rule="evenodd" d="M194.401 178.772C194.191 179.146 194.012 179.537 193.867 179.941V183.02C193.099 184.306 189.12 183.877 188.583 183.176C188.044 182.474 187.482 180.648 188.087 180.332C188.692 180.015 189.196 178.461 189.196 178.461C189.196 178.461 188.545 178.616 187.512 177.369C186.478 176.121 186.786 173.355 186.978 172.694C187.169 172.032 186.978 169.811 186.978 169.811C186.978 169.811 187.017 168.25 186.711 167.744C186.406 167.237 185.754 164.356 185.754 164.356C185.754 164.356 185.754 163.382 185.218 162.875C184.681 162.37 184.337 160.381 184.337 160.381C184.024 159.884 183.888 159.292 183.955 158.704C184.069 157.731 183.303 156.678 183.303 156.678L182.002 152.468L180.777 149.311L180.089 151.142C180.089 151.142 179.893 155.429 180.051 156.324C180.21 157.218 180.443 159.598 180.443 159.598C180.443 159.598 179.677 161.156 180.022 162.481C180.366 163.806 180.241 166.654 180.241 166.654C180.241 166.654 180.585 172.537 180.278 173.005C179.971 173.473 180.01 174.643 180.01 174.643C180.01 174.643 181.575 178.07 181.083 178.538C180.589 179.007 180.738 180.292 180.738 180.292C180.738 180.292 181.809 180.292 181.35 180.761C180.892 181.229 180.546 183.683 180.546 183.683L175.918 184.236C175.918 184.236 175.495 183.692 174.882 182.243C174.27 180.794 174.995 180.957 175.612 180.8C176.229 180.643 175.839 180.256 175.111 179.788C174.383 179.319 174.805 178.268 174.805 178.268C174.805 178.268 175.916 176.358 175.532 176.203C175.149 176.048 175.111 173.357 175.111 173.357C175.111 173.357 174.346 170.169 174.538 169.304C174.73 168.439 173.925 166.382 173.925 166.382L173.657 163.928C172.838 162.535 172.539 160.887 172.815 159.289V155.502C172.815 155.502 171.743 148.177 171.591 144.475C171.492 142.103 171.52 138.866 171.551 136.848C171.571 135.717 171.591 134.965 171.591 134.965L188.124 133.212C188.124 133.212 188.108 133.989 188.423 135.713C188.594 136.637 188.858 137.835 189.273 139.331C190.459 143.618 189.733 146.812 189.733 146.812L189.579 152.23C189.579 152.23 191.032 155.854 190.727 157.101C190.543 157.841 190.439 158.6 190.418 159.364C190.418 159.364 193.671 167.276 193.327 169.576C192.981 171.875 194.397 175.5 194.397 175.5C194.397 175.5 194.784 178.07 194.401 178.772Z" fill="#1B2749"/>
<path opacity="0.05" fill-rule="evenodd" clip-rule="evenodd" d="M185.452 158.209L190.486 157.525C190.486 157.525 187.635 160.488 185.452 158.209Z" fill="black"/>
<path opacity="0.1" fill-rule="evenodd" clip-rule="evenodd" d="M189.354 152.46C189.354 152.46 189.526 154.273 188.436 154.955C188.436 154.955 190.388 154.644 189.354 152.46Z" fill="black"/>
<path opacity="0.1" fill-rule="evenodd" clip-rule="evenodd" d="M189.411 146.381C189.411 146.381 185.204 149.909 183.673 149.616C182.143 149.322 189.411 146.381 189.411 146.381Z" fill="black"/>
<path opacity="0.1" fill-rule="evenodd" clip-rule="evenodd" d="M178.796 159.551C178.796 159.551 175.6 160.291 175.504 161.599C175.408 162.906 178.796 159.551 178.796 159.551Z" fill="black"/>
<path opacity="0.05" fill-rule="evenodd" clip-rule="evenodd" d="M179.96 175.76C179.96 175.76 175.444 176.617 176.726 177.202C178.008 177.785 180.114 178.253 180.114 178.253C180.114 178.253 181.572 178.331 179.96 175.76Z" fill="black"/>
<g opacity="0.05">
<path opacity="0.05" fill-rule="evenodd" clip-rule="evenodd" d="M175.402 178.195C175.289 178.123 175.193 178.026 175.122 177.91C175.05 177.795 175.005 177.665 174.989 177.529L174.943 177.611C174.943 177.611 174.522 178.663 175.25 179.13C175.332 179.183 175.412 179.237 175.485 179.289C175.62 179.262 175.765 179.243 175.904 179.207C176.52 179.052 176.131 178.663 175.402 178.195Z" fill="black"/>
<path opacity="0.05" fill-rule="evenodd" clip-rule="evenodd" d="M181.22 177.881C181.345 177.765 181.341 177.466 181.265 177.084C181.069 177.385 181.012 177.855 181.008 178.212C181.056 178.088 181.127 177.976 181.22 177.881Z" fill="black"/>
<path opacity="0.05" fill-rule="evenodd" clip-rule="evenodd" d="M180.524 158.496C180.357 158.957 180.255 159.439 180.219 159.928C180.306 159.59 180.423 159.261 180.569 158.944L180.524 158.496Z" fill="black"/>
<path opacity="0.05" fill-rule="evenodd" clip-rule="evenodd" d="M190.866 156.45C190.896 156.309 190.91 156.167 190.907 156.024C190.85 156.315 190.81 156.583 190.782 156.82C190.807 156.698 190.834 156.583 190.866 156.45Z" fill="black"/>
<path opacity="0.05" fill-rule="evenodd" clip-rule="evenodd" d="M180.417 172.349C180.48 172.254 180.516 171.931 180.53 171.482C180.389 171.83 180.315 172.2 180.31 172.576C180.336 172.496 180.372 172.42 180.417 172.349Z" fill="black"/>
<path opacity="0.05" fill-rule="evenodd" clip-rule="evenodd" d="M181.356 179.7C181.118 180.481 180.942 181.282 180.83 182.091L176.201 182.635C176.201 182.635 175.778 182.091 175.166 180.642C175.117 180.531 175.073 180.416 175.034 180.3C174.757 180.43 174.643 180.722 175.011 181.577C175.623 183.02 176.048 183.57 176.048 183.57L180.677 183.024C180.677 183.024 181.022 180.568 181.48 180.1C181.714 179.875 181.569 179.758 181.356 179.7Z" fill="black"/>
<path opacity="0.05" fill-rule="evenodd" clip-rule="evenodd" d="M175.25 172.701C175.25 172.701 175.287 175.39 175.67 175.545C175.866 175.1 175.993 174.677 175.821 174.608C175.43 174.452 175.4 171.763 175.4 171.763C175.4 171.763 174.635 168.574 174.827 167.709C175.018 166.844 174.214 164.788 174.214 164.788L173.947 162.333C173.127 160.939 172.828 159.293 173.105 157.693V153.907C173.105 153.907 172.032 146.582 171.879 142.879C171.782 140.509 171.81 137.272 171.84 135.253C171.84 134.889 171.852 134.566 171.858 134.292L171.727 134.307C171.727 134.307 171.705 135.056 171.688 136.19C171.656 138.209 171.627 141.445 171.727 143.814C171.879 147.517 172.95 154.844 172.95 154.844V158.63C172.675 160.229 172.975 161.875 173.794 163.267L174.06 165.723C174.06 165.723 174.864 167.786 174.672 168.646C174.481 169.505 175.25 172.701 175.25 172.701Z" fill="black"/>
<path opacity="0.05" fill-rule="evenodd" clip-rule="evenodd" d="M188.875 181.583C188.499 181.029 188.248 180.397 188.142 179.733C187.67 180.167 188.212 181.853 188.729 182.523C189.263 183.224 193.244 183.652 194.013 182.364V181.624C192.97 182.665 189.381 182.247 188.875 181.583Z" fill="black"/>
<path opacity="0.05" fill-rule="evenodd" clip-rule="evenodd" d="M194.693 177.181C194.483 177.554 194.303 177.945 194.157 178.35V178.902C194.244 178.702 194.367 178.436 194.548 178.121C194.669 177.814 194.726 177.485 194.716 177.154C194.716 177.154 194.698 177.173 194.693 177.181Z" fill="black"/>
<path opacity="0.05" fill-rule="evenodd" clip-rule="evenodd" d="M189.111 177.797C189.256 177.497 189.383 177.187 189.488 176.87C189.488 176.87 188.836 177.026 187.804 175.778C187.051 174.871 187.009 173.158 187.116 172.037C186.92 172.701 186.618 175.467 187.65 176.715C188.326 177.529 188.836 177.745 189.111 177.797Z" fill="black"/>
<path opacity="0.05" fill-rule="evenodd" clip-rule="evenodd" d="M187.114 169.154C187.181 169.922 187.207 170.693 187.19 171.464C187.21 171.342 187.236 171.222 187.268 171.103C187.464 170.44 187.268 168.219 187.268 168.219C187.268 168.219 187.307 166.659 187.001 166.152C186.693 165.647 186.053 162.762 186.053 162.762C186.053 162.762 186.053 161.787 185.517 161.281C184.981 160.774 184.636 158.785 184.636 158.785C184.319 158.29 184.181 157.697 184.245 157.11C184.36 156.135 183.595 155.084 183.595 155.084L182.294 150.874L181.068 147.718L180.377 149.551C180.377 149.551 180.377 149.782 180.353 150.149L180.914 148.661L182.138 151.811L183.44 156.02C183.44 156.02 184.206 157.072 184.09 158.047C184.027 158.634 184.165 159.226 184.481 159.722C184.481 159.722 184.826 161.715 185.362 162.218C185.898 162.719 185.896 163.698 185.896 163.698C185.896 163.698 186.548 166.581 186.853 167.085C187.159 167.59 187.114 169.154 187.114 169.154Z" fill="black"/>
</g>
<path fill-rule="evenodd" clip-rule="evenodd" d="M190.208 97.3723L189.92 98.7956L189.938 99.4288L189.949 99.8958L188.352 100.063L188.174 99.7266C187.844 99.1168 187.156 97.8768 186.935 97.6853C186.64 97.4341 186.114 93.477 186.74 93.7121C187.125 93.864 187.442 94.1558 187.629 94.5306C187.629 94.5306 190.774 94.8974 190.208 97.3723Z" fill="#FFCDD3"/>
<path opacity="0.1" fill-rule="evenodd" clip-rule="evenodd" d="M190.212 100.532L188.615 100.699L188.436 100.362C188.651 100.113 188.944 99.9482 189.265 99.8945C189.587 99.8398 189.916 99.9016 190.198 100.068L190.212 100.532Z" fill="black"/>
<path fill-rule="evenodd" clip-rule="evenodd" d="M190.707 101.061L188.601 101.557L188.556 101.238L188.436 100.379C188.436 100.379 189.27 99.2472 190.476 100.096L190.582 100.533L190.707 101.061Z" fill="white"/>
<path fill-rule="evenodd" clip-rule="evenodd" d="M156.697 97.5025L154.448 98.7303L154.252 98.2997C154.039 97.8428 153.72 97.156 153.632 96.9047C153.499 96.5259 152.562 96.0477 152.562 96.0477C150.212 93.7582 153.011 91.7898 153.011 91.7898C154.495 88.7506 156.143 92.8211 156.143 92.8211C156.143 92.8211 156.373 94.9678 156.211 95.1116C156.049 95.2545 156.049 95.843 156.049 95.843C156.263 96.2635 156.444 96.7011 156.591 97.1519C156.66 97.3687 156.697 97.5025 156.697 97.5025Z" fill="#FFCDD3"/>
<path opacity="0.1" fill-rule="evenodd" clip-rule="evenodd" d="M157.052 98.116L154.804 99.3439L154.608 98.9133C154.925 98.6418 156.05 97.7179 156.42 97.7554C156.596 97.7777 156.775 97.7827 156.953 97.7696C157.015 97.9823 157.052 98.116 157.052 98.116Z" fill="black"/>
<path fill-rule="evenodd" clip-rule="evenodd" d="M157.22 98.6503L154.693 99.9176L154.642 99.3655L154.608 98.9826C154.608 98.9826 156.071 97.7051 156.504 97.7557C156.723 97.7871 156.945 97.7871 157.164 97.7557L157.192 98.2177L157.22 98.6503Z" fill="white"/>
<path fill-rule="evenodd" clip-rule="evenodd" d="M184.714 107.46C184.714 107.46 173.699 108.725 175.758 108.044C177.19 107.568 177.76 106.649 177.88 105.612C177.977 104.75 177.758 103.819 177.471 103.022C177.212 102.315 176.884 101.636 176.492 100.996C176.492 100.996 184.907 96.281 183.227 100.567C182.967 101.216 182.806 101.9 182.749 102.597C182.698 103.291 182.772 103.987 182.966 104.654C183.283 105.736 183.888 106.706 184.714 107.46Z" fill="#FFCDD3"/>
<path opacity="0.1" fill-rule="evenodd" clip-rule="evenodd" d="M183.226 100.567C182.967 101.216 182.806 101.9 182.748 102.597C181.956 103.277 181.087 103.232 179.969 103.232C179.112 103.232 178.16 103.442 177.476 103.022C177.217 102.315 176.889 101.636 176.497 100.996C176.497 100.996 184.911 96.281 183.226 100.567Z" fill="black"/>
<path fill-rule="evenodd" clip-rule="evenodd" d="M179.061 102.977C181.576 102.977 183.615 100.9 183.615 98.3388C183.615 95.7778 181.576 93.702 179.061 93.702C176.546 93.702 174.507 95.7778 174.507 98.3388C174.507 100.9 176.546 102.977 179.061 102.977Z" fill="#FFCDD3"/>
<path opacity="0.1" fill-rule="evenodd" clip-rule="evenodd" d="M184.714 107.128C184.714 107.128 173.699 108.393 175.758 107.712C177.19 107.236 177.76 106.317 177.88 105.281C178.428 104.683 179.529 104.238 180.228 104.008C180.875 103.787 181.571 103.774 182.225 103.974C182.481 104.052 182.725 104.168 182.95 104.316C183.271 105.401 183.881 106.375 184.714 107.128Z" fill="black"/>
<path opacity="0.1" fill-rule="evenodd" clip-rule="evenodd" d="M190.588 101.397L188.481 101.894L188.436 101.574C188.662 101.259 188.978 101.022 189.34 100.896C189.703 100.769 190.094 100.76 190.462 100.869L190.588 101.397Z" fill="black"/>
<path opacity="0.1" fill-rule="evenodd" clip-rule="evenodd" d="M157.186 98.1889L154.659 99.4562L154.608 98.9041C155.426 98.4563 156.277 98.0724 157.153 97.7543L157.186 98.1889Z" fill="black"/>
<path opacity="0.1" fill-rule="evenodd" clip-rule="evenodd" d="M188.395 135.713C184.126 136.406 178.059 137.29 177.097 136.991C176.296 136.744 173.744 136.77 171.522 136.848C171.542 135.716 171.562 134.965 171.562 134.965L188.095 133.212C188.095 133.212 188.08 133.989 188.395 135.713Z" fill="black"/>
<path fill-rule="evenodd" clip-rule="evenodd" d="M193.08 133.878C193.08 133.878 179.033 136.334 177.527 135.871C176.019 135.409 168.279 135.909 168.279 135.909C164.795 138.286 166.25 134.779 166.25 134.779C166.25 134.779 165.944 132.948 166.365 131.467C166.648 130.38 166.841 129.271 166.942 128.151C166.942 128.151 166.866 125.812 167.286 125.266C167.707 124.72 168.207 120.824 168.207 120.824C168.207 120.824 168.588 118.174 168.551 117.59C168.514 117.006 168.664 115.367 168.664 115.367L169.164 112.639C166.292 112.251 157.566 106.795 157.566 106.795C157.145 104.963 153.892 100.677 153.892 100.677C153.844 100.317 153.755 99.9638 153.623 99.6254C153.395 99.0014 156.839 97.7543 156.839 97.7543C156.839 97.7543 159.403 100.942 159.94 101.808C160.476 102.672 162.312 104.262 162.312 104.262C162.597 104.233 162.885 104.27 163.153 104.374L163.198 104.388C163.813 104.634 164.39 104.969 164.91 105.384C165.774 105.363 166.611 105.685 167.246 106.281C167.246 106.281 168.812 106.046 169.083 106.319C169.355 106.591 170.69 106.319 170.69 106.319C170.69 106.319 172.028 103.436 172.91 104.272C173.791 105.109 177.527 105.07 177.527 105.07C178.023 104.396 179.235 103.914 179.992 103.675C180.639 103.454 181.335 103.443 181.989 103.64C182.271 103.726 182.535 103.861 182.772 104.039L185.044 106.298C185.044 106.298 185.693 105.44 185.618 105.247C185.541 105.053 186.383 104.896 186.383 104.896C186.383 104.896 187.492 104.545 187.913 104.427C188.334 104.31 188.719 104.775 188.755 104.816C188.741 104.767 188.453 103.819 188.559 103.102C188.664 102.385 188.099 101.707 188.099 101.707C189.437 98.356 192.461 101.161 192.461 101.161C192.461 101.161 192.806 102.993 192.501 103.694C192.195 104.396 192.806 105.876 192.73 106.267C192.653 106.657 192.884 107.319 192.884 108.06C192.884 108.802 192.493 110.203 192.272 110.826C192.05 111.45 190.205 112.853 190.205 112.853C190.205 112.853 190.089 115.075 189.285 116.36C188.48 117.646 188.986 122.041 188.986 122.041C188.986 122.041 189.751 125.471 190.708 126.563C191.665 127.655 193.08 133.878 193.08 133.878Z" fill="#FA7268"/>
<path opacity="0.1" fill-rule="evenodd" clip-rule="evenodd" d="M172.441 108.24C172.441 108.24 172.02 106.955 171.636 106.845C171.255 106.703 170.885 106.533 170.527 106.339L170.774 105.859C170.774 105.859 172.211 106.257 172.441 106.69C172.672 107.122 172.441 108.24 172.441 108.24Z" fill="black"/>
<path opacity="0.1" fill-rule="evenodd" clip-rule="evenodd" d="M165.056 105.864C164.98 106.262 161.572 106.603 161.572 106.603L163.295 104.846L163.337 104.862C163.955 105.109 164.534 105.446 165.056 105.864Z" fill="black"/>
<path fill-rule="evenodd" clip-rule="evenodd" d="M155.105 100.597C155.273 100.597 155.41 100.459 155.41 100.287C155.41 100.115 155.273 99.9764 155.105 99.9764C154.936 99.9764 154.8 100.115 154.8 100.287C154.8 100.459 154.936 100.597 155.105 100.597Z" fill="#575988"/>
<path fill-rule="evenodd" clip-rule="evenodd" d="M155.105 101.611C155.274 101.611 155.41 101.471 155.41 101.3C155.41 101.128 155.274 100.989 155.105 100.989C154.936 100.989 154.8 101.128 154.8 101.3C154.8 101.471 154.936 101.611 155.105 101.611Z" fill="#575988"/>
<path fill-rule="evenodd" clip-rule="evenodd" d="M156.1 101.611C156.269 101.611 156.405 101.472 156.405 101.3C156.405 101.129 156.269 100.989 156.1 100.989C155.932 100.989 155.795 101.129 155.795 101.3C155.795 101.472 155.932 101.611 156.1 101.611Z" fill="#575988"/>
<path fill-rule="evenodd" clip-rule="evenodd" d="M156.1 102.624C156.268 102.624 156.405 102.485 156.405 102.313C156.405 102.141 156.268 102.003 156.1 102.003C155.931 102.003 155.795 102.141 155.795 102.313C155.795 102.485 155.931 102.624 156.1 102.624Z" fill="#575988"/>
<path fill-rule="evenodd" clip-rule="evenodd" d="M191.919 102.566C192.056 102.566 192.168 102.453 192.168 102.313C192.168 102.173 192.056 102.06 191.919 102.06C191.782 102.06 191.67 102.173 191.67 102.313C191.67 102.453 191.782 102.566 191.919 102.566Z" fill="#575988"/>
<path fill-rule="evenodd" clip-rule="evenodd" d="M191.918 103.579C192.056 103.579 192.167 103.466 192.167 103.326C192.167 103.186 192.056 103.073 191.918 103.073C191.781 103.073 191.671 103.186 191.671 103.326C191.671 103.466 191.781 103.579 191.918 103.579Z" fill="#575988"/>
<path fill-rule="evenodd" clip-rule="evenodd" d="M191.919 103.579C192.056 103.579 192.168 103.466 192.168 103.327C192.168 103.187 192.056 103.073 191.919 103.073C191.782 103.073 191.67 103.187 191.67 103.327C191.67 103.466 191.782 103.579 191.919 103.579Z" fill="#575988"/>
<path opacity="0.1" fill-rule="evenodd" clip-rule="evenodd" d="M172.517 119.029C172.48 118.983 181.109 130.077 187.807 123.667C187.812 123.669 177.23 125.128 172.517 119.029Z" fill="black"/>
<path opacity="0.1" fill-rule="evenodd" clip-rule="evenodd" d="M167.542 125.107C167.542 125.107 172.705 125.25 173.245 126.762V128.337C173.099 128.42 172.933 128.463 172.765 128.463C172.597 128.463 172.431 128.42 172.285 128.337C171.764 128.05 168.643 126.436 167.542 127.213V125.107Z" fill="black"/>
<path fill-rule="evenodd" clip-rule="evenodd" d="M167.542 125.107C167.542 125.107 172.479 125.244 172.997 126.686V128.186C172.855 128.265 172.697 128.306 172.536 128.306C172.376 128.306 172.217 128.265 172.076 128.186C171.58 127.914 168.595 126.374 167.542 127.115V125.107Z" fill="#DADADA"/>
<path opacity="0.1" fill-rule="evenodd" clip-rule="evenodd" d="M170.527 113.963C171.055 115.206 171.727 116.38 172.53 117.46C173.403 118.654 174.46 119.695 175.661 120.543C175.661 120.543 170.614 114.685 170.527 113.963Z" fill="black"/>
<path opacity="0.1" fill-rule="evenodd" clip-rule="evenodd" d="M168.537 107.885C168.537 107.885 169.399 111.671 171.618 112.956L168.537 107.885Z" fill="black"/>
<path opacity="0.1" fill-rule="evenodd" clip-rule="evenodd" d="M167.619 107.886C167.597 107.816 166.854 110.875 170.481 112.575C170.481 112.575 168.94 112.043 167.619 107.886Z" fill="black"/>
<path opacity="0.1" fill-rule="evenodd" clip-rule="evenodd" d="M190.428 105.861C190.37 105.861 192.216 107.057 192.719 107.615C192.719 107.615 191.517 105.782 190.428 105.861Z" fill="black"/>
<path fill-rule="evenodd" clip-rule="evenodd" d="M178.295 103.155C178.295 103.257 178.317 103.357 178.357 103.449C178.397 103.541 178.456 103.624 178.53 103.692C178.603 103.76 178.69 103.812 178.784 103.844C178.879 103.876 178.978 103.888 179.077 103.879C180.465 103.967 181.912 104.029 183.187 103.48C183.427 103.393 183.642 103.248 183.814 103.058C184.041 102.772 184.086 102.386 184.178 102.032C184.358 101.338 184.741 100.722 185.017 100.062C185.484 98.948 185.641 97.7242 185.47 96.5258C185.433 96.158 185.314 95.8045 185.121 95.4914C184.753 94.9555 184.082 94.7377 183.594 94.3112C183.107 93.8847 182.794 93.2333 182.224 92.9162C181.712 92.6255 181.084 92.6619 180.506 92.7612C179.37 92.9577 178.282 93.3731 177.3 93.987C176.97 94.1856 176.607 94.4307 176.227 94.3578C175.895 94.294 175.652 94.0083 175.445 93.7419C175.178 94.3791 175.066 95.073 175.118 95.7639C175.133 95.8652 175.129 95.9686 175.108 96.0689C175.06 96.1904 174.988 96.2998 174.895 96.39C174.553 96.7881 174.339 97.4365 174.678 97.8468C174.824 98.0241 175.051 98.1213 175.195 98.3027C175.451 98.6279 175.365 99.1 175.359 99.5143C175.345 99.6592 175.381 99.805 175.46 99.9256C175.535 99.9955 175.625 100.045 175.724 100.069C175.822 100.093 175.925 100.091 176.022 100.062C176.216 100.004 176.419 99.9833 176.621 100.005C176.833 100.076 177.016 100.215 177.142 100.404C177.773 101.243 178.024 102.155 178.295 103.155Z" fill="#2D293D"/>
<g opacity="0.1">
<path opacity="0.1" fill-rule="evenodd" clip-rule="evenodd" d="M183.756 102.089C183.584 102.28 183.369 102.425 183.129 102.512C181.846 103.056 180.401 102.994 179.02 102.911C178.872 102.912 178.725 102.878 178.591 102.813C178.379 102.687 178.3 102.425 178.235 102.185C177.964 101.189 177.717 100.274 177.074 99.4431C176.951 99.2516 176.767 99.1077 176.554 99.0348C176.353 99.0155 176.149 99.0348 175.955 99.0925C175.858 99.1209 175.755 99.1239 175.656 99.0996C175.558 99.0763 175.467 99.0267 175.393 98.9568C175.313 98.8362 175.277 98.6914 175.291 98.5465C175.291 98.1281 175.383 97.659 175.127 97.3349C174.985 97.1535 174.757 97.0553 174.61 96.8759C174.515 96.7442 174.456 96.5882 174.44 96.4241C174.424 96.261 174.453 96.0959 174.522 95.948C174.277 96.3461 174.174 96.8466 174.457 97.189C174.604 97.3663 174.831 97.4645 174.975 97.6459C175.23 97.9721 175.145 98.4432 175.139 98.8575C175.124 99.0014 175.159 99.1472 175.238 99.2678C175.313 99.3387 175.403 99.3883 175.503 99.4127C175.601 99.436 175.705 99.4339 175.802 99.4056C175.996 99.3458 176.199 99.3265 176.401 99.3478C176.613 99.4177 176.796 99.5575 176.922 99.746C177.561 100.577 177.812 101.489 178.082 102.49C178.114 102.737 178.235 102.961 178.421 103.121C178.555 103.187 178.703 103.22 178.851 103.218C180.239 103.305 181.686 103.369 182.961 102.819C183.201 102.732 183.416 102.588 183.588 102.396C183.674 102.284 183.74 102.157 183.783 102.021C183.785 102.048 183.772 102.07 183.756 102.089Z" fill="black"/>
<path opacity="0.1" fill-rule="evenodd" clip-rule="evenodd" d="M174.898 95.331C174.96 95.2631 175.007 95.1831 175.037 95.096C175.055 94.9957 175.055 94.8924 175.037 94.7911C174.999 94.2237 175.071 93.6534 175.25 93.1134L175.225 93.084C174.958 93.7202 174.845 94.4142 174.898 95.1041C174.904 95.1801 174.904 95.256 174.898 95.331Z" fill="black"/>
</g>
<path opacity="0.1" fill-rule="evenodd" clip-rule="evenodd" d="M177.492 105.246C177.492 105.246 183.181 106.015 183.692 105.145L177.492 105.246Z" fill="black"/>
<path opacity="0.1" fill-rule="evenodd" clip-rule="evenodd" d="M188.436 102.82C188.436 102.82 191.599 102.82 192.294 104.031L188.436 102.82Z" fill="black"/>
<path opacity="0.1" fill-rule="evenodd" clip-rule="evenodd" d="M185.25 193.971C197.777 193.971 207.933 191.482 207.933 188.411C207.933 185.341 197.777 182.852 185.25 182.852C172.722 182.852 162.567 185.341 162.567 188.411C162.567 191.482 172.722 193.971 185.25 193.971Z" fill="#B643D5"/>
<path fill-rule="evenodd" clip-rule="evenodd" d="M78.1877 73.4617C78.1877 73.4617 62.3518 72.4891 64.2183 83.7868C64.2183 83.7868 63.8422 85.7846 65.6242 86.6903C65.6242 86.6903 65.6531 85.8535 67.25 86.1392C67.8181 86.2344 68.3952 86.2628 68.9703 86.2233C69.7464 86.1716 70.4836 85.8636 71.0727 85.348C71.0727 85.348 75.5252 83.4748 77.2554 76.0683C77.2554 76.0683 78.5359 74.4525 78.4852 74.0361L75.8127 75.1991C75.8127 75.1991 76.7261 77.1614 76.0008 78.7934C76.0008 78.7934 75.9142 75.27 75.4008 75.346C75.2973 75.3612 74.0128 76.0258 74.0128 76.0258C74.0128 76.0258 75.5829 79.4438 74.3979 81.9299C74.3979 81.9299 74.8476 77.7166 73.5213 76.2729L71.6408 77.3914C71.6408 77.3914 73.4765 80.9229 72.2318 83.8041C72.2318 83.8041 72.5512 79.3851 71.2438 77.6639L69.5404 79.0173C69.5404 79.0173 71.2647 82.4962 70.214 84.886C70.214 84.886 70.0767 79.7427 69.1713 79.3547C69.1713 79.3547 67.6798 80.695 67.453 81.242C67.453 81.242 68.634 83.7696 67.9007 85.1028C67.9007 85.1028 67.451 81.6756 67.0819 81.6564C67.0819 81.6564 65.5964 83.9266 65.4421 85.4858C65.4421 85.4858 65.5058 83.1709 66.7227 81.4416C66.7227 81.4416 65.2859 81.6928 64.4472 82.6401C64.4472 82.6401 64.679 81.0354 67.0898 80.8935C67.0898 80.8935 68.3176 79.1703 68.6449 79.067C68.6449 79.067 66.2491 78.8623 64.7954 79.5188C64.7954 79.5188 66.0739 78.0043 69.0847 78.6932L70.7682 77.2941C70.7682 77.2941 67.6122 76.8555 66.2739 77.3397C66.2739 77.3397 67.8141 75.9994 71.2219 76.976L73.0537 75.8616C73.0537 75.8616 70.3623 75.272 68.7594 75.4787C68.7594 75.4787 70.4528 74.5497 73.5909 75.5567L74.9083 74.958C74.9083 74.958 72.9372 74.5629 72.3592 74.5001C71.7821 74.4363 71.7522 74.2762 71.7522 74.2762C73.0009 74.0634 74.2824 74.2093 75.4555 74.6956C75.4555 74.6956 78.2345 73.64 78.1877 73.4617Z" fill="#FF9F00"/>
<path fill-rule="evenodd" clip-rule="evenodd" d="M64.5057 61.2948C64.5057 61.2948 56.2027 60.7923 57.1807 66.6275C57.1807 66.6275 56.9837 67.6588 57.919 68.1269C57.919 68.1269 57.9339 67.6953 58.7707 67.8422C59.0682 67.8918 59.3716 67.906 59.6731 67.8858C60.0791 67.8594 60.4661 67.7004 60.7755 67.4339C60.7755 67.4339 63.1087 66.4665 64.0161 62.6411C64.0161 62.6411 64.6877 61.8064 64.6609 61.5916L63.26 62.1923C63.26 62.1923 63.7395 63.2054 63.3585 64.0483C63.3585 64.0483 63.3137 62.2288 63.0441 62.2683C62.9903 62.2764 62.3167 62.6188 62.3167 62.6188C62.3167 62.6188 63.1396 64.3846 62.5187 65.6682C62.5187 65.6682 62.7545 63.4921 62.059 62.7465L61.073 63.3239C61.073 63.3239 62.0352 65.1485 61.3825 66.6367C61.3825 66.6367 61.5506 64.3542 60.8651 63.4648L59.9716 64.1638C59.9716 64.1638 60.876 65.9609 60.3248 67.1959C60.3248 67.1959 60.2522 64.5386 59.7786 64.338C59.7786 64.338 58.9965 65.0299 58.8771 65.3136C58.8771 65.3136 59.496 66.6184 59.1119 67.3073C59.1119 67.3073 58.8761 65.5365 58.6831 65.5274C58.6831 65.5274 57.9041 66.6995 57.8235 67.5049C57.8235 67.5049 57.8563 66.3094 58.4941 65.4159C58.4941 65.4159 57.7409 65.5456 57.3011 66.0349C57.3011 66.0349 57.4225 65.2062 58.6871 65.1333C58.6871 65.1333 59.3308 64.2428 59.502 64.1901C59.502 64.1901 58.2463 64.0837 57.4842 64.4231C57.4842 64.4231 58.1548 63.641 59.7328 63.9966L60.6153 63.2743C60.6153 63.2743 58.9607 63.0474 58.2593 63.2976C58.2593 63.2976 59.0662 62.6057 60.8531 63.1102L61.8133 62.5337C61.8133 62.5337 60.4024 62.2298 59.5627 62.3362C59.5627 62.3362 60.4502 61.857 62.0959 62.3767L62.7854 62.0677C62.7854 62.0677 61.7526 61.8631 61.4501 61.8307C61.1467 61.7983 61.1307 61.7152 61.1307 61.7152C61.7854 61.6058 62.458 61.6807 63.0729 61.932C63.0729 61.932 64.5305 61.387 64.5057 61.2948Z" fill="#FF9F00"/>
<path fill-rule="evenodd" clip-rule="evenodd" d="M33.7352 154.486C33.7352 154.486 22.9067 161.692 29.2378 167.812C29.2378 167.812 29.8939 169.242 31.473 168.927C31.473 168.927 31.1132 168.391 32.2897 167.781C32.706 167.562 33.0977 167.294 33.4568 166.985C33.942 166.571 34.2874 166.015 34.4406 165.403C34.4406 165.403 36.5144 162.039 34.3014 156.57C34.3014 156.57 34.411 154.931 34.1898 154.697L32.9621 156.74C32.9621 156.74 34.4489 157.512 34.7101 158.887C34.7101 158.887 33.0607 156.734 32.7585 157.035C32.6975 157.096 32.1551 158.143 32.1551 158.143C32.1551 158.143 34.7306 159.499 35.0769 161.632C35.0769 161.632 33.4673 158.785 31.9448 158.539L31.2165 160.164C31.2165 160.164 34.0169 161.459 34.5029 163.869C34.5029 163.869 32.7148 160.957 31.0791 160.529L30.5732 162.214C30.5732 162.214 33.2775 163.531 33.6681 165.539C33.6681 165.539 31.253 162.401 30.4838 162.606C30.4838 162.606 30.1113 164.177 30.2096 164.63C30.2096 164.63 32.127 165.623 32.2483 166.815C32.2483 166.815 30.404 164.9 30.1535 165.07C30.1535 165.07 30.2054 167.219 30.8088 168.267C30.8088 168.267 29.8042 166.792 29.8208 165.114C29.8208 165.114 28.9916 165.979 28.8698 166.984C28.8698 166.984 28.2961 165.87 29.8139 164.592C29.8139 164.592 29.8405 162.912 30.0085 162.686C30.0085 162.686 28.3439 163.74 27.6871 164.867C27.6871 164.867 27.8414 163.293 30.1284 162.236L30.5999 160.534C30.5999 160.534 28.3313 161.817 27.6718 162.78C27.6718 162.78 28.0764 161.184 30.7535 160.111L31.4515 158.514C31.4515 158.514 29.4193 159.474 28.4615 160.393C28.4615 160.393 29.1521 158.98 31.6667 158.059L32.2595 157.036C32.2595 157.036 30.7881 157.762 30.3808 158.007C29.9734 158.253 29.8809 158.167 29.8809 158.167C30.6043 157.42 31.511 156.878 32.4999 156.602C32.4999 156.602 33.8466 154.573 33.7352 154.486Z" fill="#FF9F00"/>
<path fill-rule="evenodd" clip-rule="evenodd" d="M32.1977 219.262C36.5778 219.262 40.1287 215.421 40.1287 210.681C40.1287 205.942 36.5778 202.1 32.1977 202.1C27.8175 202.1 24.2667 205.942 24.2667 210.681C24.2667 215.421 27.8175 219.262 32.1977 219.262Z" fill="#FBD56F"/>
<path opacity="0.1" fill-rule="evenodd" clip-rule="evenodd" d="M32.1977 219.262C36.5778 219.262 40.1287 215.421 40.1287 210.681C40.1287 205.942 36.5778 202.1 32.1977 202.1C27.8175 202.1 24.2667 205.942 24.2667 210.681C24.2667 215.421 27.8175 219.262 32.1977 219.262Z" fill="black"/>
<path fill-rule="evenodd" clip-rule="evenodd" d="M33.1926 218.879C37.5728 218.879 41.1236 215.123 41.1236 210.489C41.1236 205.856 37.5728 202.1 33.1926 202.1C28.8125 202.1 25.2616 205.856 25.2616 210.489C25.2616 215.123 28.8125 218.879 33.1926 218.879Z" fill="#FBD56F"/>
<path fill-rule="evenodd" clip-rule="evenodd" d="M36.3221 217.955L35.4965 217.488C35.4965 217.488 35.1102 219.128 35.2368 220.299C35.2488 220.417 35.2956 220.528 35.371 220.618C35.4465 220.707 35.547 220.772 35.6592 220.803C37.5596 221.283 46.6011 223.329 52.8216 220.445C52.9121 220.403 52.9897 220.339 53.0475 220.257C53.1052 220.175 53.141 220.078 53.1509 219.978C53.2295 219.26 52.9589 217.777 52.8514 217.488C52.6256 216.866 36.3221 217.955 36.3221 217.955Z" fill="#FBD56F"/>
<path opacity="0.1" fill-rule="evenodd" clip-rule="evenodd" d="M36.3221 217.955L35.4965 217.488C35.4965 217.488 35.1102 219.128 35.2368 220.299C35.2488 220.417 35.2956 220.528 35.371 220.618C35.4465 220.707 35.547 220.772 35.6592 220.803C37.5596 221.283 46.6011 223.329 52.8216 220.445C52.9121 220.403 52.9897 220.339 53.0475 220.257C53.1052 220.175 53.141 220.078 53.1509 219.978C53.2295 219.26 52.9589 217.777 52.8514 217.488C52.6256 216.866 36.3221 217.955 36.3221 217.955Z" fill="black"/>
<path fill-rule="evenodd" clip-rule="evenodd" d="M44.8871 219.26C49.6808 219.26 53.5672 218.368 53.5672 217.266C53.5672 216.163 49.6808 215.27 44.8871 215.27C40.0927 215.27 36.2063 216.163 36.2063 217.266C36.2063 218.368 40.0927 219.26 44.8871 219.26Z" fill="#FBD56F"/>
<path fill-rule="evenodd" clip-rule="evenodd" d="M40.2999 214.916L39.4764 214.449C39.4764 214.449 39.09 216.089 39.2167 217.26C39.2285 217.377 39.2753 217.488 39.3507 217.578C39.4262 217.667 39.5268 217.731 39.639 217.761C41.5393 218.243 50.5806 220.29 56.8012 217.406C56.8917 217.363 56.9693 217.298 57.027 217.216C57.0847 217.135 57.1206 217.039 57.1315 216.939C57.2071 216.22 56.9365 214.737 56.829 214.449C56.5942 213.827 40.2999 214.916 40.2999 214.916Z" fill="#FBD56F"/>
<path opacity="0.1" fill-rule="evenodd" clip-rule="evenodd" d="M40.2999 214.916L39.4764 214.449C39.4764 214.449 39.09 216.089 39.2167 217.26C39.2285 217.377 39.2753 217.488 39.3507 217.578C39.4262 217.667 39.5268 217.731 39.639 217.761C41.5393 218.243 50.5806 220.29 56.8012 217.406C56.8917 217.363 56.9693 217.298 57.027 217.216C57.0847 217.135 57.1206 217.039 57.1315 216.939C57.2071 216.22 56.9365 214.737 56.829 214.449C56.5942 213.827 40.2999 214.916 40.2999 214.916Z" fill="black"/>
<path fill-rule="evenodd" clip-rule="evenodd" d="M47.872 216.221C52.6658 216.221 56.5521 215.328 56.5521 214.226C56.5521 213.124 52.6658 212.231 47.872 212.231C43.0772 212.231 39.1912 213.124 39.1912 214.226C39.1912 215.328 43.0772 216.221 47.872 216.221Z" fill="#FBD56F"/>
<path fill-rule="evenodd" clip-rule="evenodd" d="M43.2865 210.863L42.4613 210.396C42.4613 210.396 42.0749 212.036 42.2016 213.207C42.2135 213.324 42.2604 213.436 42.3358 213.526C42.4112 213.616 42.5117 213.68 42.624 213.71C44.5243 214.19 53.5685 216.237 59.7861 213.354C59.8766 213.311 59.9542 213.246 60.0129 213.164C60.0706 213.082 60.1075 212.987 60.1184 212.887C60.194 212.167 59.9234 210.684 59.8159 210.396C59.5901 209.774 43.2865 210.863 43.2865 210.863Z" fill="#FBD56F"/>
<path opacity="0.1" fill-rule="evenodd" clip-rule="evenodd" d="M43.2865 210.863L42.4613 210.396C42.4613 210.396 42.0749 212.036 42.2016 213.207C42.2135 213.324 42.2604 213.436 42.3358 213.526C42.4112 213.616 42.5117 213.68 42.624 213.71C44.5243 214.19 53.5685 216.237 59.7861 213.354C59.8766 213.311 59.9542 213.246 60.0129 213.164C60.0706 213.082 60.1075 212.987 60.1184 212.887C60.194 212.167 59.9234 210.684 59.8159 210.396C59.5901 209.774 43.2865 210.863 43.2865 210.863Z" fill="black"/>
<path fill-rule="evenodd" clip-rule="evenodd" d="M50.8566 213.182C55.6504 213.182 59.5367 212.288 59.5367 211.186C59.5367 210.085 55.6504 209.191 50.8566 209.191C46.0628 209.191 42.1761 210.085 42.1761 211.186C42.1761 212.288 46.0628 213.182 50.8566 213.182Z" fill="#FBD56F"/>
<path fill-rule="evenodd" clip-rule="evenodd" d="M39.3064 206.815L38.4808 206.345C38.4808 206.345 38.0965 207.987 38.2211 209.156C38.2333 209.273 38.2802 209.385 38.3556 209.475C38.4309 209.564 38.5313 209.629 38.6433 209.659C40.5437 210.14 49.5858 212.186 55.8044 209.305C55.8939 209.262 55.9725 209.197 56.0302 209.115C56.0889 209.034 56.1247 208.938 56.1357 208.838C56.2113 208.118 55.9407 206.635 55.8332 206.345C55.6093 205.721 39.3064 206.815 39.3064 206.815Z" fill="#FBD56F"/>
<path opacity="0.1" fill-rule="evenodd" clip-rule="evenodd" d="M39.3064 206.815L38.4808 206.345C38.4808 206.345 38.0965 207.987 38.2211 209.156C38.2333 209.273 38.2802 209.385 38.3556 209.475C38.4309 209.564 38.5313 209.629 38.6433 209.659C40.5437 210.14 49.5858 212.186 55.8044 209.305C55.8939 209.262 55.9725 209.197 56.0302 209.115C56.0889 209.034 56.1247 208.938 56.1357 208.838C56.2113 208.118 55.9407 206.635 55.8332 206.345C55.6093 205.721 39.3064 206.815 39.3064 206.815Z" fill="black"/>
<path fill-rule="evenodd" clip-rule="evenodd" d="M47.8714 209.13C52.6662 209.13 56.5525 208.236 56.5525 207.135C56.5525 206.033 52.6662 205.139 47.8714 205.139C43.0776 205.139 39.1912 206.033 39.1912 207.135C39.1912 208.236 43.0776 209.13 47.8714 209.13Z" fill="#FBD56F"/>
<path fill-rule="evenodd" clip-rule="evenodd" d="M47.2642 203.775L46.4414 203.306C46.4414 203.306 46.0543 204.949 46.1817 206.117C46.1926 206.235 46.2394 206.347 46.315 206.436C46.3906 206.526 46.4911 206.591 46.6036 206.621C48.504 207.1 57.5462 209.148 63.7638 206.266C63.8543 206.223 63.9319 206.158 63.9906 206.076C64.0483 205.995 64.0852 205.899 64.0961 205.799C64.1717 205.079 63.9011 203.594 63.7936 203.306C63.5678 202.68 47.2642 203.775 47.2642 203.775Z" fill="#FBD56F"/>
<path opacity="0.1" fill-rule="evenodd" clip-rule="evenodd" d="M47.2642 203.775L46.4414 203.306C46.4414 203.306 46.0543 204.949 46.1817 206.117C46.1926 206.235 46.2394 206.347 46.315 206.436C46.3906 206.526 46.4911 206.591 46.6036 206.621C48.504 207.1 57.5462 209.148 63.7638 206.266C63.8543 206.223 63.9319 206.158 63.9906 206.076C64.0483 205.995 64.0852 205.899 64.0961 205.799C64.1717 205.079 63.9011 203.594 63.7936 203.306C63.5678 202.68 47.2642 203.775 47.2642 203.775Z" fill="black"/>
<path fill-rule="evenodd" clip-rule="evenodd" d="M54.8361 205.077C59.6308 205.077 63.5172 204.184 63.5172 203.082C63.5172 201.979 59.6308 201.087 54.8361 201.087C50.0423 201.087 46.156 201.979 46.156 203.082C46.156 204.184 50.0423 205.077 54.8361 205.077Z" fill="#FBD56F"/>
<path fill-rule="evenodd" clip-rule="evenodd" d="M42.2914 201.748L41.4658 201.279C41.4658 201.279 41.0814 202.921 41.206 204.089C41.2182 204.206 41.2652 204.318 41.3405 204.408C41.4159 204.497 41.5162 204.562 41.6283 204.592C43.5286 205.073 52.5699 207.12 58.7885 204.238C58.879 204.196 58.9576 204.13 59.0153 204.049C59.074 203.967 59.1098 203.871 59.1208 203.771C59.1964 203.051 58.9258 201.566 58.8183 201.279C58.5944 200.657 42.2914 201.748 42.2914 201.748Z" fill="#FBD56F"/>
<path opacity="0.1" fill-rule="evenodd" clip-rule="evenodd" d="M42.2914 201.748L41.4658 201.279C41.4658 201.279 41.0814 202.921 41.206 204.089C41.2182 204.206 41.2652 204.318 41.3405 204.408C41.4159 204.497 41.5162 204.562 41.6283 204.592C43.5286 205.073 52.5699 207.12 58.7885 204.238C58.879 204.196 58.9576 204.13 59.0153 204.049C59.074 203.967 59.1098 203.871 59.1208 203.771C59.1964 203.051 58.9258 201.566 58.8183 201.279C58.5944 200.657 42.2914 201.748 42.2914 201.748Z" fill="black"/>
<path fill-rule="evenodd" clip-rule="evenodd" d="M49.8614 203.051C54.6562 203.051 58.5425 202.158 58.5425 201.057C58.5425 199.954 54.6562 199.061 49.8614 199.061C45.0677 199.061 41.1811 199.954 41.1811 201.057C41.1811 202.158 45.0677 203.051 49.8614 203.051Z" fill="#FBD56F"/>
<path fill-rule="evenodd" clip-rule="evenodd" d="M45.2743 197.695L44.4514 197.226C44.4514 197.226 44.0644 198.869 44.1917 200.038C44.2037 200.155 44.2495 200.267 44.3251 200.357C44.4007 200.446 44.5012 200.511 44.6136 200.541C46.514 201.02 55.5563 203.068 61.7768 200.186C61.8664 200.144 61.944 200.079 62.0017 199.997C62.0594 199.915 62.0952 199.819 62.1062 199.718C62.1818 199 61.9111 197.517 61.8037 197.226C61.5798 196.604 45.2743 197.695 45.2743 197.695Z" fill="#FBD56F"/>
<path opacity="0.1" fill-rule="evenodd" clip-rule="evenodd" d="M45.2743 197.695L44.4514 197.226C44.4514 197.226 44.0644 198.869 44.1917 200.038C44.2037 200.155 44.2495 200.267 44.3251 200.357C44.4007 200.446 44.5012 200.511 44.6136 200.541C46.514 201.02 55.5563 203.068 61.7768 200.186C61.8664 200.144 61.944 200.079 62.0017 199.997C62.0594 199.915 62.0952 199.819 62.1062 199.718C62.1818 199 61.9111 197.517 61.8037 197.226C61.5798 196.604 45.2743 197.695 45.2743 197.695Z" fill="black"/>
<path fill-rule="evenodd" clip-rule="evenodd" d="M52.8461 198.999C57.6409 198.999 61.5272 198.106 61.5272 197.004C61.5272 195.902 57.6409 195.009 52.8461 195.009C48.0524 195.009 44.166 195.902 44.166 197.004C44.166 198.106 48.0524 198.999 52.8461 198.999Z" fill="#FBD56F"/>
<path fill-rule="evenodd" clip-rule="evenodd" d="M47.2663 192.63L46.4405 192.161C46.4405 192.161 46.0564 193.803 46.1808 194.971C46.1927 195.09 46.2395 195.2 46.3151 195.29C46.3907 195.381 46.4912 195.444 46.6026 195.476C48.503 195.955 57.5453 198.002 63.7638 195.12C63.8534 195.079 63.932 195.014 63.9897 194.932C64.0484 194.85 64.0842 194.753 64.0952 194.653C64.1708 193.934 63.9012 192.452 63.7927 192.161C63.5668 191.539 47.2663 192.63 47.2663 192.63Z" fill="#FBD56F"/>
<path opacity="0.1" fill-rule="evenodd" clip-rule="evenodd" d="M47.2663 192.63L46.4405 192.161C46.4405 192.161 46.0564 193.803 46.1808 194.971C46.1927 195.09 46.2395 195.2 46.3151 195.29C46.3907 195.381 46.4912 195.444 46.6026 195.476C48.503 195.955 57.5453 198.002 63.7638 195.12C63.8534 195.079 63.932 195.014 63.9897 194.932C64.0484 194.85 64.0842 194.753 64.0952 194.653C64.1708 193.934 63.9012 192.452 63.7927 192.161C63.5668 191.539 47.2663 192.63 47.2663 192.63Z" fill="black"/>
<path fill-rule="evenodd" clip-rule="evenodd" d="M54.8371 193.934C59.6308 193.934 63.5172 193.04 63.5172 191.939C63.5172 190.837 59.6308 189.943 54.8371 189.943C50.0423 189.943 46.156 190.837 46.156 191.939C46.156 193.04 50.0423 193.934 54.8371 193.934Z" fill="#FBD56F"/>
<path fill-rule="evenodd" clip-rule="evenodd" d="M61.1958 218.97L60.3709 218.501C60.3709 218.501 59.9839 220.143 60.1112 221.311C60.1232 221.428 60.1699 221.54 60.2456 221.63C60.3202 221.72 60.4207 221.784 60.5331 221.814C62.4335 222.295 71.4748 224.341 77.6963 221.46C77.7859 221.417 77.8635 221.351 77.9212 221.269C77.9789 221.187 78.0147 221.091 78.0257 220.991C78.1033 220.272 77.8326 218.788 77.7252 218.501C77.4993 217.879 61.1958 218.97 61.1958 218.97Z" fill="#FBD56F"/>
<path opacity="0.1" fill-rule="evenodd" clip-rule="evenodd" d="M61.1958 218.97L60.3709 218.501C60.3709 218.501 59.9839 220.143 60.1112 221.311C60.1232 221.428 60.1699 221.54 60.2456 221.63C60.3202 221.72 60.4207 221.784 60.5331 221.814C62.4335 222.295 71.4748 224.341 77.6963 221.46C77.7859 221.417 77.8635 221.351 77.9212 221.269C77.9789 221.187 78.0147 221.091 78.0257 220.991C78.1033 220.272 77.8326 218.788 77.7252 218.501C77.4993 217.879 61.1958 218.97 61.1958 218.97Z" fill="black"/>
<path fill-rule="evenodd" clip-rule="evenodd" d="M69.7616 220.273C74.5554 220.273 78.4417 219.38 78.4417 218.279C78.4417 217.176 74.5554 216.283 69.7616 216.283C64.9668 216.283 61.0805 217.176 61.0805 218.279C61.0805 219.38 64.9668 220.273 69.7616 220.273Z" fill="#FBD56F"/>
<path fill-rule="evenodd" clip-rule="evenodd" d="M64.1807 214.918L63.3549 214.448C63.3549 214.448 62.9709 216.091 63.0952 217.26C63.1072 217.377 63.1539 217.489 63.2295 217.578C63.3052 217.668 63.4057 217.733 63.5171 217.763C65.4175 218.243 74.4598 220.29 80.6783 217.408C80.7679 217.366 80.8465 217.301 80.9042 217.219C80.9629 217.137 80.9987 217.042 81.0096 216.941C81.0852 216.222 80.8146 214.737 80.7072 214.448C80.4833 213.826 64.1807 214.918 64.1807 214.918Z" fill="#FBD56F"/>
<path opacity="0.1" fill-rule="evenodd" clip-rule="evenodd" d="M64.1807 214.918L63.3549 214.448C63.3549 214.448 62.9709 216.091 63.0952 217.26C63.1072 217.377 63.1539 217.489 63.2295 217.578C63.3052 217.668 63.4057 217.733 63.5171 217.763C65.4175 218.243 74.4598 220.29 80.6783 217.408C80.7679 217.366 80.8465 217.301 80.9042 217.219C80.9629 217.137 80.9987 217.042 81.0096 216.941C81.0852 216.222 80.8146 214.737 80.7072 214.448C80.4833 213.826 64.1807 214.918 64.1807 214.918Z" fill="black"/>
<path fill-rule="evenodd" clip-rule="evenodd" d="M72.7465 217.234C77.5403 217.234 81.4266 216.341 81.4266 215.238C81.4266 214.136 77.5403 213.244 72.7465 213.244C67.9527 213.244 64.0654 214.136 64.0654 215.238C64.0654 216.341 67.9527 217.234 72.7465 217.234Z" fill="#FBD56F"/>
<path fill-rule="evenodd" clip-rule="evenodd" d="M61.1938 210.859L60.3709 210.392C60.3709 210.392 59.9839 212.032 60.1112 213.202C60.1232 213.319 60.1699 213.431 60.2446 213.52C60.3202 213.61 60.4207 213.674 60.5331 213.703C62.4335 214.185 71.4758 216.233 77.6963 213.349C77.7859 213.307 77.8645 213.241 77.9222 213.16C77.9799 213.078 78.0157 212.982 78.0257 212.882C78.1013 212.162 77.8306 210.679 77.7232 210.392C77.4993 209.782 61.1938 210.859 61.1938 210.859Z" fill="#FBD56F"/>
<path opacity="0.1" fill-rule="evenodd" clip-rule="evenodd" d="M61.1938 210.859L60.3709 210.392C60.3709 210.392 59.9839 212.032 60.1112 213.202C60.1232 213.319 60.1699 213.431 60.2446 213.52C60.3202 213.61 60.4207 213.674 60.5331 213.703C62.4335 214.185 71.4758 216.233 77.6963 213.349C77.7859 213.307 77.8645 213.241 77.9222 213.16C77.9799 213.078 78.0157 212.982 78.0257 212.882C78.1013 212.162 77.8306 210.679 77.7232 210.392C77.4993 209.782 61.1938 210.859 61.1938 210.859Z" fill="black"/>
<path fill-rule="evenodd" clip-rule="evenodd" d="M68.7656 213.182C73.5604 213.182 77.4467 212.288 77.4467 211.187C77.4467 210.085 73.5604 209.191 68.7656 209.191C63.9719 209.191 60.0855 210.085 60.0855 211.187C60.0855 212.288 63.9719 213.182 68.7656 213.182Z" fill="#FBD56F"/>
<path fill-rule="evenodd" clip-rule="evenodd" d="M68.1605 207.824L67.3357 207.357C67.3357 207.357 66.9487 208.997 67.076 210.155C67.087 210.272 67.1337 210.384 67.2094 210.474C67.285 210.564 67.3855 210.629 67.4979 210.658C69.3983 211.141 78.4396 213.186 84.6601 210.304C84.7506 210.262 84.8283 210.196 84.886 210.115C84.9447 210.033 84.9795 209.937 84.9894 209.837C85.0661 209.117 84.7974 207.634 84.69 207.347C84.4641 206.748 68.1605 207.824 68.1605 207.824Z" fill="#FBD56F"/>
<path opacity="0.1" fill-rule="evenodd" clip-rule="evenodd" d="M68.1605 207.824L67.3357 207.357C67.3357 207.357 66.9487 208.997 67.076 210.155C67.087 210.272 67.1337 210.384 67.2094 210.474C67.285 210.564 67.3855 210.629 67.4979 210.658C69.3983 211.141 78.4396 213.186 84.6601 210.304C84.7506 210.262 84.8283 210.196 84.886 210.115C84.9447 210.033 84.9795 209.937 84.9894 209.837C85.0661 209.117 84.7974 207.634 84.69 207.347C84.4641 206.748 68.1605 207.824 68.1605 207.824Z" fill="black"/>
<path fill-rule="evenodd" clip-rule="evenodd" d="M76.7254 209.13C81.5191 209.13 85.4055 208.236 85.4055 207.134C85.4055 206.032 81.5191 205.139 76.7254 205.139C71.9316 205.139 68.0453 206.032 68.0453 207.134C68.0453 208.236 71.9316 209.13 76.7254 209.13Z" fill="#FBD56F"/>
<path fill-rule="evenodd" clip-rule="evenodd" d="M63.1837 205.798L62.3609 205.331C62.3609 205.331 61.9738 206.971 62.1012 208.141C62.1131 208.259 62.1599 208.37 62.2355 208.459C62.3111 208.55 62.4106 208.613 62.5231 208.643C64.4234 209.125 73.4647 211.17 79.6853 208.288C79.7758 208.247 79.8534 208.182 79.9121 208.1C79.9698 208.018 80.0047 207.922 80.0156 207.821C80.0912 207.102 79.8206 205.619 79.7131 205.331C79.4893 204.709 63.1837 205.798 63.1837 205.798Z" fill="#FBD56F"/>
<path opacity="0.1" fill-rule="evenodd" clip-rule="evenodd" d="M63.1837 205.798L62.3609 205.331C62.3609 205.331 61.9738 206.971 62.1012 208.141C62.1131 208.259 62.1599 208.37 62.2355 208.459C62.3111 208.55 62.4106 208.613 62.5231 208.643C64.4234 209.125 73.4647 211.17 79.6853 208.288C79.7758 208.247 79.8534 208.182 79.9121 208.1C79.9698 208.018 80.0047 207.922 80.0156 207.821C80.0912 207.102 79.8206 205.619 79.7131 205.331C79.4893 204.709 63.1837 205.798 63.1837 205.798Z" fill="black"/>
<path fill-rule="evenodd" clip-rule="evenodd" d="M71.7505 207.104C76.5443 207.104 80.4316 206.21 80.4316 205.108C80.4316 204.007 76.5443 203.113 71.7505 203.113C66.9568 203.113 63.0704 204.007 63.0704 205.108C63.0704 206.21 66.9568 207.104 71.7505 207.104Z" fill="#FBD56F"/>
<path fill-rule="evenodd" clip-rule="evenodd" d="M67.1656 201.746L66.3407 201.279C66.3407 201.279 65.9537 202.919 66.0811 204.09C66.093 204.208 66.1398 204.319 66.2144 204.409C66.29 204.498 66.3905 204.563 66.5029 204.594C68.4033 205.074 77.4446 207.12 83.6631 204.236C83.7537 204.194 83.8313 204.13 83.89 204.048C83.9477 203.965 83.9845 203.869 83.9955 203.769C84.0711 203.051 83.8005 201.568 83.693 201.279C83.4691 200.657 67.1656 201.746 67.1656 201.746Z" fill="#FBD56F"/>
<path opacity="0.1" fill-rule="evenodd" clip-rule="evenodd" d="M67.1656 201.746L66.3407 201.279C66.3407 201.279 65.9537 202.919 66.0811 204.09C66.093 204.208 66.1398 204.319 66.2144 204.409C66.29 204.498 66.3905 204.563 66.5029 204.594C68.4033 205.074 77.4446 207.12 83.6631 204.236C83.7537 204.194 83.8313 204.13 83.89 204.048C83.9477 203.965 83.9845 203.869 83.9955 203.769C84.0711 203.051 83.8005 201.568 83.693 201.279C83.4691 200.657 67.1656 201.746 67.1656 201.746Z" fill="black"/>
<path fill-rule="evenodd" clip-rule="evenodd" d="M74.7354 203.051C79.5292 203.051 83.4165 202.158 83.4165 201.057C83.4165 199.954 79.5292 199.061 74.7354 199.061C69.9417 199.061 66.0553 199.954 66.0553 201.057C66.0553 202.158 69.9417 203.051 74.7354 203.051Z" fill="#FBD56F"/>
<path fill-rule="evenodd" clip-rule="evenodd" d="M68.1592 196.681L67.3354 196.214C67.3354 196.214 66.9494 197.854 67.0757 199.025C67.0877 199.142 67.1344 199.254 67.21 199.343C67.2857 199.433 67.3861 199.498 67.4986 199.528C69.399 200.008 78.4402 202.055 84.6608 199.171C84.7513 199.129 84.8289 199.064 84.8866 198.982C84.9444 198.9 84.9802 198.804 84.9901 198.704C85.0667 197.984 84.7961 196.502 84.6886 196.214C84.4648 195.592 68.1592 196.681 68.1592 196.681Z" fill="#FBD56F"/>
<path opacity="0.1" fill-rule="evenodd" clip-rule="evenodd" d="M68.1592 196.681L67.3354 196.214C67.3354 196.214 66.9494 197.854 67.0757 199.025C67.0877 199.142 67.1344 199.254 67.21 199.343C67.2857 199.433 67.3861 199.498 67.4986 199.528C69.399 200.008 78.4402 202.055 84.6608 199.171C84.7513 199.129 84.8289 199.064 84.8866 198.982C84.9444 198.9 84.9802 198.804 84.9901 198.704C85.0667 197.984 84.7961 196.502 84.6886 196.214C84.4648 195.592 68.1592 196.681 68.1592 196.681Z" fill="black"/>
<path fill-rule="evenodd" clip-rule="evenodd" d="M76.7254 197.986C81.5201 197.986 85.4065 197.092 85.4065 195.991C85.4065 194.889 81.5201 193.995 76.7254 193.995C71.9316 193.995 68.0453 194.889 68.0453 195.991C68.0453 197.092 71.9316 197.986 76.7254 197.986Z" fill="#FBD56F"/>
<path opacity="0.1" fill-rule="evenodd" clip-rule="evenodd" d="M88.2914 196.022C88.2914 196.022 84.3294 197.928 83.9832 198.768C83.6369 199.607 88.2914 196.022 88.2914 196.022Z" fill="black"/>
<path opacity="0.1" fill-rule="evenodd" clip-rule="evenodd" d="M88.0717 198.048C88.0717 198.048 84.4819 199.597 84.0003 199.985C83.5197 200.372 88.0717 198.048 88.0717 198.048Z" fill="black"/>
<path opacity="0.1" fill-rule="evenodd" clip-rule="evenodd" d="M86.573 201.404C86.573 201.404 84.987 202.609 84.1115 201.662C83.2349 200.715 86.573 201.404 86.573 201.404Z" fill="black"/>
<path fill-rule="evenodd" clip-rule="evenodd" d="M50.1068 231.419C54.4876 231.419 58.0377 227.578 58.0377 222.837C58.0377 218.098 54.4876 214.257 50.1068 214.257C45.7269 214.257 42.1761 218.098 42.1761 222.837C42.1761 227.578 45.7269 231.419 50.1068 231.419Z" fill="#FBD56F"/>
<path opacity="0.1" fill-rule="evenodd" clip-rule="evenodd" d="M50.1068 231.419C54.4876 231.419 58.0377 227.578 58.0377 222.837C58.0377 218.098 54.4876 214.257 50.1068 214.257C45.7269 214.257 42.1761 218.098 42.1761 222.837C42.1761 227.578 45.7269 231.419 50.1068 231.419Z" fill="black"/>
<path fill-rule="evenodd" clip-rule="evenodd" d="M51.102 231.036C55.4828 231.036 59.0329 227.28 59.0329 222.646C59.0329 218.013 55.4828 214.257 51.102 214.257C46.7221 214.257 43.1711 218.013 43.1711 222.646C43.1711 227.28 46.7221 231.036 51.102 231.036Z" fill="#FBD56F"/>
<defs>
<linearGradient id="paint0_linear_8_201" x1="195.654" y1="188.033" x2="195.654" y2="90.6555" gradientUnits="userSpaceOnUse">
<stop stop-color="#808080" stop-opacity="0.25"/>
<stop offset="0.54" stop-color="#808080" stop-opacity="0.12"/>
<stop offset="1" stop-color="#808080" stop-opacity="0.1"/>
</linearGradient>
</defs>
</svg>
