<svg xmlns="http://www.w3.org/2000/svg" xmlns:xlink="http://www.w3.org/1999/xlink" width="24" height="24" viewBox="0 0 24 24"><defs><style>.a{clip-path:url(#a);}.b{fill:#a6a5a5;}</style><clipPath id="a"><path d="M3.7,23.259a2.819,2.819,0,0,1-2.011-.829,2.621,2.621,0,0,1-.782-1.864L0,11.08A2.725,2.725,0,0,1,.819,9.123a2.8,2.8,0,0,1,1.978-.8H3.883V4.784A5,5,0,0,1,8.953,0a5,5,0,0,1,5.07,4.784V8.319h1.084a2.775,2.775,0,0,1,1.982.812,2.816,2.816,0,0,1,.812,2.013L17,20.477a2.793,2.793,0,0,1-2.8,2.782ZM1.5,11.009,2.406,20.5a1.267,1.267,0,0,0,1.3,1.264H14.2A1.3,1.3,0,0,0,15.5,20.4l.9-9.333a1.262,1.262,0,0,0-1.3-1.253H2.8A1.27,1.27,0,0,0,1.5,11.009ZM12.523,8.319V4.784A3.508,3.508,0,0,0,8.953,1.5a3.509,3.509,0,0,0-3.57,3.285V8.319Zm-1.836,11.1H7.217l-.484-3.978-.005-.09a2.205,2.205,0,0,1,2.223-2.182,2.239,2.239,0,0,1,1.572.631,2.132,2.132,0,0,1,.653,1.543l-.005.09-.482,3.987h0ZM8.229,15.314l.317,2.605h.813l.316-2.614a.728.728,0,0,0-1.446.008Z"/></clipPath></defs><g transform="translate(3)"><path d="M3.7,23.259a2.819,2.819,0,0,1-2.011-.829,2.621,2.621,0,0,1-.782-1.864L0,11.08A2.725,2.725,0,0,1,.819,9.123a2.8,2.8,0,0,1,1.978-.8H3.883V4.784A5,5,0,0,1,8.953,0a5,5,0,0,1,5.07,4.784V8.319h1.084a2.775,2.775,0,0,1,1.982.812,2.816,2.816,0,0,1,.812,2.013L17,20.477a2.793,2.793,0,0,1-2.8,2.782ZM1.5,11.009,2.406,20.5a1.267,1.267,0,0,0,1.3,1.264H14.2A1.3,1.3,0,0,0,15.5,20.4l.9-9.333a1.262,1.262,0,0,0-1.3-1.253H2.8A1.27,1.27,0,0,0,1.5,11.009ZM12.523,8.319V4.784A3.508,3.508,0,0,0,8.953,1.5a3.509,3.509,0,0,0-3.57,3.285V8.319Zm-1.836,11.1H7.217l-.484-3.978-.005-.09a2.205,2.205,0,0,1,2.223-2.182,2.239,2.239,0,0,1,1.572.631,2.132,2.132,0,0,1,.653,1.543l-.005.09-.482,3.987h0ZM8.229,15.314l.317,2.605h.813l.316-2.614a.728.728,0,0,0-1.446.008Z"/><g class="a"><g transform="translate(-35.25 -33)"><rect class="b" width="97.5" height="97.5"/></g></g></g></svg>