<svg xmlns="http://www.w3.org/2000/svg" width="24" height="24" viewBox="0 0 24 24"><defs><style>.a{fill:#c8c8d3;}</style></defs><g transform="translate(2 2)"><path class="a" d="M18.521,19.615a1.094,1.094,0,0,1-.772-.318l-5.726-5.832.022-.023a7.311,7.311,0,0,1-10.085-.775,7.655,7.655,0,0,1,.065-10.3A7.312,7.312,0,0,1,12.119,1.72a7.649,7.649,0,0,1,1.325,10.215l.107-.116L19.32,17.7a1.152,1.152,0,0,1-.013,1.587A1.1,1.1,0,0,1,18.521,19.615ZM7.424,1.894a5.615,5.615,0,0,0-5.556,5.66,5.615,5.615,0,0,0,5.556,5.66,5.623,5.623,0,0,0,5.556-5.66A5.615,5.615,0,0,0,7.424,1.894Z" transform="translate(0.354 0.371)"/></g></svg>