<svg xmlns="http://www.w3.org/2000/svg" width="35.227" height="5.31" viewBox="0 0 35.227 5.31"><defs><style>.a{fill:#fff;}</style></defs><path class="a" d="M30.7,4.553a2.646,2.646,0,0,1-.79-1.857,2.611,2.611,0,0,1,.43-1.486A2.65,2.65,0,0,1,33.061.046a2.625,2.625,0,0,1,1.37.717,2.582,2.582,0,0,1,.74,1.359,2.611,2.611,0,0,1-.139,1.539A2.66,2.66,0,0,1,32.57,5.31h-.02A2.636,2.636,0,0,1,30.7,4.553Zm-9.97,0A2.646,2.646,0,0,1,19.94,2.7,2.668,2.668,0,0,1,21.551.214,2.666,2.666,0,0,1,23.09.046a2.625,2.625,0,0,1,1.37.717A2.583,2.583,0,0,1,25.2,2.122,2.641,2.641,0,0,1,24.08,4.86a2.655,2.655,0,0,1-1.48.45h-.02A2.636,2.636,0,0,1,20.731,4.553Zm-9.97,0A2.65,2.65,0,0,1,9.97,2.7a2.618,2.618,0,0,1,.43-1.486A2.674,2.674,0,0,1,13.13.046a2.66,2.66,0,0,1,2.111,2.076,2.7,2.7,0,0,1-.15,1.539,2.66,2.66,0,0,1-2.46,1.649h-.02A2.638,2.638,0,0,1,10.76,4.553Zm-9.97,0A2.649,2.649,0,0,1,0,2.7,2.61,2.61,0,0,1,.43,1.211a2.663,2.663,0,0,1,1.191-1A2.633,2.633,0,0,1,3.151.046a2.7,2.7,0,0,1,1.38.717,2.725,2.725,0,0,1,.74,1.359,2.7,2.7,0,0,1-.15,1.539A2.658,2.658,0,0,1,2.66,5.31H2.64A2.638,2.638,0,0,1,.79,4.553Z" transform="translate(0 0)"/></svg>