<svg xmlns="http://www.w3.org/2000/svg" width="35.22" height="5.31" viewBox="0 0 35.22 5.31"><defs><style>.a{fill:#fff;}</style></defs><path class="a" d="M21.58,5.117a2.69,2.69,0,0,1-.859-.563A2.642,2.642,0,0,1,20.15,3.7,2.5,2.5,0,0,1,19.94,2.7a2.62,2.62,0,0,1,.43-1.486,2.583,2.583,0,0,1,1.18-1A2.659,2.659,0,0,1,23.09.046a2.63,2.63,0,0,1,1.37.716A2.593,2.593,0,0,1,25.2,2.121,2.64,2.64,0,0,1,24.08,4.86a2.682,2.682,0,0,1-1.48.45H22.58A2.7,2.7,0,0,1,21.58,5.117Zm-19.93,0a2.581,2.581,0,0,1-.86-.563A2.517,2.517,0,0,1,.211,3.7,2.484,2.484,0,0,1,0,2.7,2.612,2.612,0,0,1,.43,1.211a2.692,2.692,0,0,1,1.18-1A2.663,2.663,0,0,1,3.151.046a2.7,2.7,0,0,1,1.38.716,2.646,2.646,0,0,1,.73,1.359,2.618,2.618,0,0,1-.14,1.541A2.659,2.659,0,0,1,2.66,5.31H2.639A2.6,2.6,0,0,1,1.651,5.117Zm29.04-.564A2.648,2.648,0,0,1,29.9,2.7a2.691,2.691,0,0,1,.43-1.486A2.678,2.678,0,0,1,33.061.046a2.707,2.707,0,0,1,1.37.716,2.736,2.736,0,0,1,.74,1.359,2.71,2.71,0,0,1-.149,1.541A2.661,2.661,0,0,1,32.56,5.31h-.02A2.636,2.636,0,0,1,30.691,4.553Zm-19.94,0A2.642,2.642,0,0,1,9.97,2.7a2.69,2.69,0,0,1,.42-1.486,2.662,2.662,0,0,1,4.84.911A2.64,2.64,0,0,1,14.11,4.86a2.679,2.679,0,0,1-1.48.45h-.02A2.661,2.661,0,0,1,10.751,4.553Z" transform="translate(0 0)"/></svg>