<svg xmlns="http://www.w3.org/2000/svg" width="375" height="38.002" viewBox="0 0 375 38.002"><defs><style>.a{fill:#cacaca;}</style></defs><g transform="translate(0 0)"><path class="a" d="M254,14H214.01A39.853,39.853,0,0,0,241.641,2.933,39.855,39.855,0,0,0,250.3-9.138,39.534,39.534,0,0,0,253.951-24H254V14h0Zm-375,0V-24h.049A39.526,39.526,0,0,0-117.3-9.138a39.855,39.855,0,0,0,8.66,12.071A39.877,39.877,0,0,0-81.4,14v0ZM2.5,5a2.5,2.5,0,0,1,0-5h129a2.5,2.5,0,0,1,0,5Z" transform="translate(121 24)"/></g></svg>