<svg xmlns="http://www.w3.org/2000/svg" width="375" height="40" viewBox="0 0 375 40"><defs><style>.a,.e{fill:none;}.a{stroke:#fff;stroke-miterlimit:10;opacity:0.35;}.b,.c{fill:#fff;}.b{opacity:0.4;}.d{stroke:none;}</style></defs><g transform="translate(336 17)"><g class="a" transform="translate(0 0.333)"><rect class="d" width="22" height="11.333" rx="2.667"/><rect class="e" x="0.5" y="0.5" width="21" height="10.333" rx="2.167"/></g><path class="b" d="M0,0V4A2.17,2.17,0,0,0,1.328,2,2.17,2.17,0,0,0,0,0" transform="translate(23 4)"/><rect class="c" width="18" height="7.333" rx="1.333" transform="translate(2 2.333)"/></g><path class="c" d="M7.415,10.873l-2-2.016a.313.313,0,0,1,.01-.456,3.421,3.421,0,0,1,4.419,0,.31.31,0,0,1,.1.226.315.315,0,0,1-.094.23l-2,2.016a.311.311,0,0,1-.443,0Zm3.515-3.53a4.9,4.9,0,0,0-6.585,0,.311.311,0,0,1-.434-.006L2.758,6.17a.322.322,0,0,1,0-.459,7.158,7.158,0,0,1,9.752,0,.322.322,0,0,1,.005.459L11.364,7.337a.311.311,0,0,1-.434.006Zm2.66-2.687a8.64,8.64,0,0,0-11.907,0,.309.309,0,0,1-.434,0L.094,3.486a.322.322,0,0,1,0-.456,10.9,10.9,0,0,1,15.08,0,.323.323,0,0,1,0,.456L14.023,4.652a.307.307,0,0,1-.433,0Z" transform="translate(315.694 17.331)"/><path class="c" d="M15,10.667a1,1,0,0,1-1-1V1a1,1,0,0,1,1-1h1a1,1,0,0,1,1,1V9.667a1,1,0,0,1-1,1Zm-4.667,0a1,1,0,0,1-1-1V3.334a1,1,0,0,1,1-1h1a1,1,0,0,1,1,1V9.667a1,1,0,0,1-1,1Zm-4.667,0a1,1,0,0,1-1-1v-4a1,1,0,0,1,1-1h1a1,1,0,0,1,1,1v4a1,1,0,0,1-1,1ZM1,10.667a1,1,0,0,1-1-1v-2a1,1,0,0,1,1-1H2a1,1,0,0,1,1,1v2a1,1,0,0,1-1,1Z" transform="translate(293.667 17.667)"/><path class="c" d="M18.253,11.1a3.521,3.521,0,0,1-2.968-1.464,6.982,6.982,0,0,1-1.067-4.1C14.217,2.07,15.726,0,18.253,0s4.028,2.076,4.028,5.552a6.952,6.952,0,0,1-1.067,4.082A3.515,3.515,0,0,1,18.253,11.1Zm0-9.521c-1.35,0-2.124,1.444-2.124,3.962,0,2.575.754,3.992,2.124,3.992s2.116-1.418,2.116-3.992a6.307,6.307,0,0,0-.561-2.95A1.712,1.712,0,0,0,18.253,1.575Zm9.478,9.514a3.981,3.981,0,0,1-2.468-.788,3.353,3.353,0,0,1-1.254-2.09h1.883a1.842,1.842,0,0,0,1.853,1.3c1.541,0,2.461-1.443,2.461-3.86h-.124a2.918,2.918,0,0,1-2.74,1.582,3.382,3.382,0,0,1-3.479-3.515,3.624,3.624,0,0,1,1.1-2.67A4.066,4.066,0,0,1,27.789,0a3.764,3.764,0,0,1,3.479,2.087,6.774,6.774,0,0,1,.747,3.34C32.015,8.972,30.413,11.089,27.731,11.089ZM27.8,1.575a2.038,2.038,0,0,0-2.087,2.08,2.087,2.087,0,0,0,4.174.029,2.114,2.114,0,0,0-.6-1.5A2.071,2.071,0,0,0,27.8,1.575ZM3.867,11.089A3.979,3.979,0,0,1,1.4,10.3,3.353,3.353,0,0,1,.147,8.211H2.029a1.843,1.843,0,0,0,1.853,1.3c1.541,0,2.462-1.443,2.462-3.86H6.218A2.915,2.915,0,0,1,3.479,7.229,3.383,3.383,0,0,1,0,3.713a3.624,3.624,0,0,1,1.1-2.67A4.066,4.066,0,0,1,3.926,0,3.766,3.766,0,0,1,7.405,2.087a6.774,6.774,0,0,1,.747,3.34C8.152,8.972,6.55,11.089,3.867,11.089ZM3.94,1.575a2.038,2.038,0,0,0-2.087,2.08,2.008,2.008,0,0,0,2.08,2.073,2,2,0,0,0,2.1-2.044,2.113,2.113,0,0,0-.6-1.5A2.072,2.072,0,0,0,3.94,1.575Zm7.23,8.137a1.157,1.157,0,1,1,0-2.315,1.114,1.114,0,0,1,1.172,1.157A1.126,1.126,0,0,1,11.17,9.712Zm0-5.494A1.123,1.123,0,0,1,10,3.069,1.126,1.126,0,0,1,11.17,1.912a1.114,1.114,0,0,1,1.172,1.157A1.123,1.123,0,0,1,11.17,4.218Z" transform="translate(32.146 17.167)"/></svg>