<svg xmlns="http://www.w3.org/2000/svg" width="15.333" height="11" viewBox="0 0 15.333 11"><defs><style>.a{fill:#fff;}</style></defs><path class="a" d="M7.445,10.907,5.439,8.885a.309.309,0,0,1-.094-.231.314.314,0,0,1,.1-.227,3.437,3.437,0,0,1,4.437,0,.315.315,0,0,1,.009.458L7.889,10.907a.313.313,0,0,1-.445,0Zm3.53-3.542a4.928,4.928,0,0,0-6.612,0,.311.311,0,0,1-.435-.005L2.768,6.189a.322.322,0,0,1,0-.46,7.193,7.193,0,0,1,9.791,0,.322.322,0,0,1,0,.46L11.409,7.36a.311.311,0,0,1-.435.005Zm2.669-2.7a8.68,8.68,0,0,0-11.955,0,.308.308,0,0,1-.435,0L.094,3.5a.323.323,0,0,1,0-.457,10.947,10.947,0,0,1,15.141,0,.323.323,0,0,1,0,.457l-1.161,1.17a.308.308,0,0,1-.435,0Z" transform="translate(0 0)"/></svg>