<svg xmlns="http://www.w3.org/2000/svg" width="11.993" height="8.995" viewBox="0 0 11.993 8.995"><defs><style>.a{fill:#9d9d9d;}</style></defs><path class="a" d="M6.043,8.995h0L4,6.762A3.266,3.266,0,0,1,6.043,6a3.261,3.261,0,0,1,2.047.768L6.043,8.994Zm3.03-3.361h0a4.7,4.7,0,0,0-6.08,0L2,4.531A6.224,6.224,0,0,1,6.031,3a6.225,6.225,0,0,1,4.037,1.537l-.995,1.1Zm1.98-2.228h0A7.734,7.734,0,0,0,.939,3.4L0,2.36A9.234,9.234,0,0,1,5.992,0a9.236,9.236,0,0,1,6,2.367L11.054,3.4Z" transform="translate(0 0)"/></svg>